<svg width="115" height="31" viewBox="0 0 115 31" fill="none" xmlns="http://www.w3.org/2000/svg">
<g clip-path="url(#clip0_29_27)">
<path d="M7.64865 1.28754L0 23.6222H4.49859L6.65833 17.1013H12.8636L15.0866 23.6222H19.68L12.0208 1.28754H7.64865ZM11.7785 13.3946H7.754L9.42912 8.4699C9.54501 8.13388 9.65036 7.79786 9.74518 7.47235C9.85053 7.80836 9.95589 8.15488 10.0823 8.5119L11.7785 13.3946Z" fill="white"/>
<path d="M27.2338 13.4576C25.1689 12.6386 24.9371 12.2606 24.9371 11.6621C24.9371 10.906 25.5692 10.444 26.5912 10.444C27.8027 10.444 28.7509 10.927 29.2039 11.2105L30.0889 11.7671L31.2583 8.21789L30.7316 7.88187C29.7202 7.22034 28.1925 6.83182 26.6438 6.83182C23.1883 6.83182 20.6808 9.00543 20.6808 12.0086C20.6808 14.7702 23.1356 16.2403 25.19 16.9858C27.2444 17.7524 27.4024 18.2774 27.4024 18.9284C27.4024 20.1465 26.1171 20.325 25.348 20.325C24.1575 20.325 22.8827 19.821 22.1558 19.3904L21.2814 18.8759L20.133 22.4776L20.6914 22.8031C21.9451 23.5382 23.6307 23.9582 25.2953 23.9582C29.0986 23.9582 31.6587 21.8266 31.6587 18.6554C31.6587 15.4738 29.1196 14.1612 27.2338 13.4576Z" fill="white"/>
<path d="M38.4118 3.28265L34.1345 4.57422V7.12585H31.8167V10.801H34.1345V18.1094C34.1345 20.1465 34.5453 21.6061 35.3987 22.5616C36.231 23.4647 37.4847 23.9687 38.928 23.9687C40.2239 23.9687 41.1615 23.7062 41.604 23.5487L42.1835 23.3492L41.9622 19.653L40.9719 19.947C40.6769 20.031 40.3398 20.094 39.6339 20.094C39.1177 20.094 38.4118 20.094 38.4118 18.0149V10.801H42.2993V7.12585H38.4118V3.28265Z" fill="white"/>
<path d="M52.7293 6.97883L51.9497 6.87382C51.7179 6.84232 51.4862 6.81082 51.1806 6.81082C49.8321 6.81082 48.5784 7.36735 47.6302 8.3334L47.5775 7.12584H43.553L43.6057 7.98688C43.69 9.25744 43.7321 10.717 43.7321 12.5756V23.6222H48.0727V14.8857C48.0727 14.4762 48.1043 14.0667 48.1465 13.7727C48.4625 12.0611 49.5476 10.99 50.991 10.99C51.3281 10.99 51.5494 10.99 51.739 11.032L52.7293 11.242V6.97883Z" fill="white"/>
<path d="M60.6414 6.82132C55.8056 6.82132 52.4238 10.3915 52.4238 15.5053C52.4238 20.493 55.7003 23.9687 60.3885 23.9687C64.3603 23.9687 68.6377 21.2385 68.6377 15.2532C68.6482 10.2865 65.3506 6.82132 60.6414 6.82132ZM64.2444 15.3477C64.2444 18.2249 62.6852 20.3145 60.5255 20.3145C58.3868 20.3145 56.8381 18.2459 56.8381 15.4107C56.8381 13.5732 57.6282 10.4755 60.5887 10.4755C63.4754 10.465 64.2444 13.6572 64.2444 15.3477Z" fill="white"/>
<path d="M82.8709 3.06213C81.4486 1.78107 79.2994 1.13004 76.497 1.13004C74.6217 1.13004 72.8413 1.26654 71.2083 1.53956L70.534 1.65506V23.6222H74.843V15.4633C75.2855 15.5053 75.749 15.5158 76.1915 15.5158C79.0992 15.5158 81.5645 14.6232 83.1237 12.9956C84.3458 11.7461 84.9569 10.066 84.9569 8.00788C84.9569 6.01278 84.2194 4.25919 82.8709 3.06213ZM80.6479 8.15489C80.6479 11.2735 77.8877 11.7461 76.2442 11.7461C75.6963 11.7461 75.2328 11.7251 74.843 11.6726V4.96273C75.2644 4.91022 75.8333 4.87872 76.5602 4.87872C78.425 4.87872 80.6479 5.44575 80.6479 8.15489Z" fill="white"/>
<path d="M98.1577 19.2539V13.6887C98.1577 9.25744 95.8504 6.82132 91.6679 6.82132C89.7294 6.82132 87.7171 7.34635 86.3054 8.23889L85.7576 8.57491L86.927 12.0086L87.812 11.41C88.7075 10.801 90.0033 10.444 91.2781 10.444C92.1525 10.4335 92.7952 10.633 93.206 11.0425C93.5537 11.389 93.7644 11.8931 93.8276 12.5546C90.4458 12.6491 87.97 13.4577 86.4529 14.9592C85.4099 15.9988 84.8726 17.3218 84.8726 18.8969C84.8726 21.4275 86.7163 23.9792 90.2562 23.9792C91.7627 23.9792 93.185 23.4962 94.2912 22.6561L94.4071 23.6432H98.5159L98.3684 22.7086C98.2314 21.7951 98.1577 20.64 98.1577 19.2539ZM90.9304 20.346C90.2878 20.346 89.2132 20.115 89.2132 18.5819C89.2132 17.9834 89.3923 17.5214 89.7715 17.1538C90.2772 16.6603 91.4045 16.0933 93.9119 16.0408V17.8154C93.9119 17.9414 93.9014 18.1829 93.8276 18.4139C93.5326 19.2959 92.5845 20.346 90.9304 20.346Z" fill="white"/>
<path d="M110.094 7.12582L106.944 16.3978C106.86 16.6288 106.786 16.8703 106.712 17.1118C106.628 16.8808 106.554 16.6603 106.47 16.4503L103.036 7.12582H98.3052L104.237 21.9421L104.258 21.9841C104.352 22.1731 104.384 22.2886 104.395 22.3306C104.363 22.4146 104.3 22.5616 104.258 22.6561C103.741 23.7482 102.983 24.7667 102.214 25.3757L102.193 25.3967C101.329 26.1318 100.444 26.4573 100.096 26.5623L99.3376 26.8038L100.454 30.5L101.171 30.374C101.603 30.3005 103.141 29.933 104.9 28.4629C107.007 26.6043 108.409 23.6432 110.242 18.8339L114.73 7.12582H110.094Z" fill="white"/>
<path d="M15.8346 7.43035C18.6265 4.5847 23.3674 2.89412 28.5086 2.89412C30.5103 2.89412 32.4699 3.14613 34.3136 3.66066L34.4611 3.70266L37.7586 2.70511L36.2837 2.13808C33.4813 1.06703 30.2364 0.5 26.9072 0.5C22.0715 0.5 17.5624 1.66556 14.2016 3.77616L13.8434 4.00717L15.2341 8.06038L15.8346 7.43035Z" fill="white"/>
</g>
<defs>
<clipPath id="clip0_29_27">
<rect width="114.73" height="30" fill="white" transform="translate(0 0.5)"/>
</clipPath>
</defs>
</svg>
