<svg width="91" height="35" viewBox="0 0 91 35" fill="none" xmlns="http://www.w3.org/2000/svg">
<path fill-rule="evenodd" clip-rule="evenodd" d="M18.8683 4C22.5531 5.5837 26.2379 7.1675 29.9227 8.6072C29.9227 9.6151 29.9227 10.6229 29.9227 11.6307C22.5531 11.6307 15.1835 11.6307 7.96136 11.6307C7.96136 10.6229 7.96136 9.6151 7.96136 8.6072C11.6461 7.1675 15.1835 5.5837 18.8683 4Z" fill="white"/>
<path fill-rule="evenodd" clip-rule="evenodd" d="M48.1425 10.8668C48.5846 10.8668 49.1742 10.8668 49.6164 10.8668C50.5007 12.3066 51.3851 13.8903 52.2694 15.3301C52.2694 13.8903 52.2694 12.3066 52.2694 10.8668C52.7116 10.8668 53.1538 10.8668 53.4486 10.8668C53.4486 13.0264 53.4486 15.1861 53.4486 17.2018C53.0064 17.2018 52.5642 17.2018 51.9746 17.2018C51.0903 15.618 50.2059 14.1783 49.3216 12.5945C49.3216 14.1783 49.3216 15.618 49.3216 17.2018H48.1425C48.1425 15.1861 48.1425 13.0264 48.1425 10.8668Z" fill="white"/>
<path fill-rule="evenodd" clip-rule="evenodd" d="M54.775 10.8668C55.2172 10.8668 55.6593 10.8668 56.1015 10.8668C56.1015 11.7307 56.1015 12.5945 56.1015 13.6024C56.9859 12.7385 57.7228 11.8746 58.6072 10.8668C59.1967 10.8668 59.7863 10.8668 60.3759 10.8668C59.4915 11.7307 58.4598 12.5945 57.7228 13.4584C58.6072 14.7542 59.4915 15.906 60.5232 17.2018C59.9337 17.2018 59.3441 17.2018 58.7546 17.0578C58.0176 16.1939 57.428 15.1861 56.8385 14.3222C56.5437 14.4662 56.3963 14.7542 56.1015 14.8981C56.1015 15.618 56.1015 16.3379 56.1015 17.0578C55.6593 17.0578 55.2172 17.0578 54.775 17.0578C54.775 15.0421 54.775 13.0264 54.775 10.8668Z" fill="white"/>
<path fill-rule="evenodd" clip-rule="evenodd" d="M9.23114 12.4505C10.8524 12.4505 12.4737 12.4505 13.9476 12.4505C13.9476 12.8825 13.9476 13.1704 13.9476 13.6023C13.6528 13.6023 13.358 13.6023 13.0633 13.6023C13.0633 16.4819 13.0633 19.2174 13.0633 22.0969C13.358 22.0969 13.6528 22.0969 13.9476 22.0969V23.1048C12.3263 23.1048 10.705 23.1048 9.08374 23.1048C9.08374 22.6728 9.08374 22.3849 9.08374 21.953C9.37854 21.953 9.67334 21.953 9.96814 21.953C9.96814 19.0734 9.96814 16.3379 9.96814 13.4584C9.67334 13.4584 9.37854 13.4584 9.08374 13.4584C9.23114 13.1704 9.23114 12.8825 9.23114 12.4505Z" fill="white"/>
<path fill-rule="evenodd" clip-rule="evenodd" d="M16.6006 12.4505C18.2219 12.4505 19.6959 12.4505 21.3172 12.4505C21.3172 12.8825 21.3172 13.1704 21.3172 13.6023C21.0224 13.6023 20.7276 13.6023 20.5802 13.6023C20.5802 16.4819 20.5802 19.2174 20.5802 22.0969C20.875 22.0969 21.1698 22.0969 21.4646 22.0969V23.2487C19.8433 23.2487 18.2219 23.2487 16.748 23.2487C16.748 22.9608 16.748 22.5289 16.748 22.2409C17.0428 22.2409 17.3376 22.2409 17.6324 22.2409C17.6324 19.3614 17.6324 16.6258 17.6324 13.7463C17.3376 13.7463 17.0428 13.7463 16.748 13.7463C16.6006 13.1704 16.6006 12.8825 16.6006 12.4505Z" fill="white"/>
<path fill-rule="evenodd" clip-rule="evenodd" d="M23.8229 12.4505C25.4442 12.4505 27.0655 12.4505 28.6868 12.4505C28.6868 12.8825 28.6868 13.1704 28.6868 13.6023C28.392 13.6023 28.0972 13.6023 27.8024 13.6023C27.8024 16.4819 27.8024 19.2174 27.8024 22.0969C28.0972 22.0969 28.392 22.0969 28.6868 22.0969C28.6868 22.5289 28.6868 22.8168 28.6868 23.2487C27.0655 23.2487 25.4442 23.2487 23.8229 23.2487C23.8229 22.8168 23.8229 22.5289 23.8229 22.0969C24.1177 22.0969 24.4125 22.0969 24.7072 22.0969C24.7072 19.2174 24.7072 16.4819 24.7072 13.6023C24.4125 13.6023 24.1177 13.6023 23.8229 13.6023C23.8229 13.1704 23.8229 12.8825 23.8229 12.4505Z" fill="white"/>
<path fill-rule="evenodd" clip-rule="evenodd" d="M43.4259 14.8981C43.7207 14.3222 43.8681 13.6024 44.1629 13.0264C44.3103 12.7385 44.3103 12.5945 44.4577 12.3066C44.7525 13.1704 45.0472 14.0343 45.342 14.8981H43.4259ZM45.0472 10.8668C44.6051 10.8668 44.0155 10.8668 43.5733 10.8668C42.689 12.8825 42.0994 15.0421 41.2151 17.2018C41.6572 17.2018 42.0994 17.2018 42.5416 17.2018C42.689 16.7698 42.8364 16.3379 42.9838 15.906C43.8681 15.906 44.6051 15.906 45.4894 15.906C45.6368 16.3379 45.7842 16.7698 45.9316 17.2018C46.3738 17.2018 46.9633 17.2018 47.4055 17.2018C46.5212 15.1861 45.7842 13.0264 45.0472 10.8668Z" fill="white"/>
<path fill-rule="evenodd" clip-rule="evenodd" d="M38.5619 16.0499C37.8249 16.1939 37.088 16.1939 36.351 16.1939C36.351 15.618 36.351 15.0421 36.351 14.4662C37.088 14.4662 38.1197 14.3222 38.8567 14.7542C39.2988 15.0421 39.004 15.906 38.5619 16.0499ZM38.5619 12.0186C39.1514 12.1626 39.004 13.0264 38.5619 13.3144C37.8249 13.4584 37.088 13.4584 36.351 13.4584C36.351 13.0264 36.351 12.4505 36.351 12.0186C37.088 12.0186 37.8249 11.8746 38.5619 12.0186ZM39.4462 13.8903C40.0358 13.4584 40.3306 13.0264 40.1832 12.3066C40.0358 11.4427 39.1514 11.0108 38.4145 11.0108C37.2353 11.0108 36.2036 11.0108 35.0245 11.0108C35.0245 13.1704 35.0245 15.3301 35.0245 17.3457C36.2036 17.3457 37.3827 17.3457 38.5619 17.3457C39.1514 17.3457 39.5936 17.2018 39.8884 16.7698C40.6253 15.762 40.478 14.3222 39.4462 13.8903Z" fill="white"/>
<path fill-rule="evenodd" clip-rule="evenodd" d="M64.7977 18.9295C65.3873 19.3614 65.5347 19.9373 65.6821 20.5132C65.2399 20.5132 64.7977 20.5132 64.3555 20.5132C64.2081 20.2253 64.0608 19.7933 63.6186 19.6493C63.1764 19.5054 62.5868 19.5054 62.2921 19.6493C61.8499 19.7933 61.5551 20.3692 61.9973 20.8012C63.029 21.3771 64.2081 21.3771 65.2399 21.809C65.9768 22.2409 65.9768 23.1048 65.8295 23.8247C65.6821 24.5445 65.0925 24.8325 64.3555 25.1204C63.3238 25.4084 61.9973 25.2644 61.1129 24.5445C60.6708 24.1126 60.5234 23.6807 60.376 22.9608C60.8181 22.9608 61.2603 22.9608 61.7025 22.9608C61.8499 23.2487 61.8499 23.6807 62.2921 23.8247C62.8816 23.9686 63.6186 23.9686 64.0608 23.8247C64.5029 23.5367 64.6503 22.9608 64.2082 22.6728C63.3238 22.0969 61.8499 22.2409 60.9655 21.665C60.0812 20.9451 60.376 19.3614 61.4077 18.7855C62.2921 18.3536 63.9134 18.3536 64.7977 18.9295Z" fill="white"/>
<path fill-rule="evenodd" clip-rule="evenodd" d="M34.7297 18.6415C36.4984 18.6415 38.2671 18.6415 40.0358 18.6415C40.0358 19.0734 40.0358 19.3614 40.0358 19.7933C39.4462 19.7933 38.7093 19.7933 38.1197 19.7933C38.1197 21.521 38.1197 23.2488 38.1197 25.1204H36.6458C36.6458 23.3927 36.6458 21.665 36.6458 19.7933C36.0562 19.7933 35.3193 19.7933 34.7297 19.7933C34.7297 19.3614 34.7297 18.9295 34.7297 18.6415Z" fill="white"/>
<path fill-rule="evenodd" clip-rule="evenodd" d="M54.0381 18.6415C54.4803 18.6415 55.0699 18.6415 55.512 18.6415C56.3964 20.0813 57.2807 21.665 58.1651 23.1048C58.1651 21.665 58.1651 20.0813 58.1651 18.6415H59.3442C59.3442 20.8012 59.3442 22.9608 59.3442 25.1204C58.902 25.1204 58.4599 25.1204 58.0177 25.1204C57.1333 23.5367 56.249 22.0969 55.3646 20.5132C55.3646 22.0969 55.3646 23.5367 55.3646 25.1204H54.0381C54.0381 22.8168 54.0381 20.8012 54.0381 18.6415Z" fill="white"/>
<path fill-rule="evenodd" clip-rule="evenodd" d="M66.7136 18.6415C68.1876 18.6415 69.8089 18.6415 71.2828 18.6415C71.2828 19.0734 71.2828 19.3614 71.2828 19.7933C70.251 19.7933 69.0719 19.7933 68.0402 19.7933C68.0402 20.2253 68.0402 20.8012 68.0402 21.2331C68.9245 21.2331 69.9563 21.2331 70.8406 21.2331C70.8406 21.665 70.8406 21.953 70.8406 22.3849C69.9563 22.3849 68.9245 22.3849 68.0402 22.3849C68.0402 23.2488 68.0402 24.1126 68.0402 25.1204C67.598 25.1204 67.1558 25.1204 66.7136 25.1204C66.7136 22.8168 66.7136 20.6572 66.7136 18.6415Z" fill="white"/>
<path fill-rule="evenodd" clip-rule="evenodd" d="M72.3145 18.6415C73.9358 18.6415 75.4097 18.6415 77.031 18.6415C77.031 19.0734 77.031 19.3614 77.031 19.7933C75.8519 19.7933 74.6728 19.7933 73.6411 19.7933C73.6411 20.2253 73.6411 20.6572 73.6411 21.2331C74.6728 21.2331 75.7045 21.2331 76.8837 21.2331V22.2409C75.8519 22.2409 74.8202 22.2409 73.6411 22.2409C73.6411 22.8168 73.6411 23.3927 73.6411 23.9686C74.8202 23.9686 75.9993 23.9686 77.3258 23.9686C77.3258 24.4006 77.3258 24.6885 77.3258 25.1204H72.4619C72.3145 22.8168 72.3145 20.6572 72.3145 18.6415Z" fill="white"/>
<path fill-rule="evenodd" clip-rule="evenodd" d="M44.4576 21.377C43.7207 21.521 42.9837 21.377 42.3941 21.377C42.3941 20.8011 42.3941 20.2252 42.3941 19.6493C42.9837 19.6493 43.7207 19.6493 44.4576 19.6493C44.8998 20.0813 45.0472 21.0891 44.4576 21.377ZM45.7841 22.5289C45.6367 22.2409 45.342 22.0969 45.1946 21.953C46.2263 21.521 46.5211 20.2252 45.7841 19.3614C45.342 18.7855 44.7524 18.6415 44.0154 18.4975C42.9837 18.4975 41.952 18.4975 40.9202 18.4975C40.9202 20.6572 40.9202 22.8168 40.9202 24.9765H42.2468C42.2468 24.1126 42.2468 23.2487 42.2468 22.3849C42.8363 22.3849 44.1628 22.0969 44.4576 22.8168C44.605 23.5367 44.605 24.2566 44.605 24.9765C45.1946 24.9765 45.6367 24.9765 46.2263 24.9765C45.7841 24.2566 46.2263 23.3927 45.7841 22.5289Z" fill="white"/>
<path fill-rule="evenodd" clip-rule="evenodd" d="M81.895 21.377C81.158 21.521 80.5684 21.377 79.8315 21.377C79.8315 20.8011 79.8315 20.2252 79.8315 19.6493C80.5684 19.6493 81.3054 19.5054 81.895 19.7933C82.4845 20.0813 82.4845 21.2331 81.895 21.377ZM83.3689 22.6728C83.2215 22.3849 82.9267 22.0969 82.6319 21.953C82.9267 21.809 83.2215 21.521 83.3689 21.2331C83.811 20.5132 83.5163 19.3614 82.7793 18.9295C82.1897 18.6415 81.6002 18.4975 80.8632 18.4975C79.9789 18.4975 79.0945 18.4975 78.2102 18.4975C78.2102 20.6572 78.2102 22.8168 78.2102 24.8325C78.6524 24.8325 79.0945 24.8325 79.5367 24.8325C79.5367 23.9686 79.5367 23.1048 79.5367 22.2409C80.1263 22.2409 81.158 22.0969 81.7476 22.5289C82.0423 23.1048 81.895 24.1126 82.0423 24.8325C82.6319 24.8325 83.0741 24.8325 83.6636 24.8325C83.3689 24.1126 83.5163 23.3927 83.3689 22.6728Z" fill="white"/>
<path fill-rule="evenodd" clip-rule="evenodd" d="M49.3216 22.5289C49.6164 21.665 49.9112 20.9451 50.2059 20.0813C50.6481 20.8012 50.7955 21.665 51.0903 22.5289C50.3533 22.5289 49.9112 22.5289 49.3216 22.5289ZM50.9429 18.6415C50.5007 18.6415 50.0586 18.6415 49.469 18.6415C49.3216 18.7855 49.1742 19.0734 49.1742 19.3614C48.4372 21.2331 47.8477 23.2488 47.1107 25.1204C47.5529 25.1204 47.9951 25.1204 48.4372 25.1204C48.5846 24.6885 48.732 24.2566 48.8794 23.8247C49.7638 23.8247 50.5007 23.8247 51.3851 23.8247C51.5325 24.2566 51.6799 24.6885 51.8272 25.1204C52.2694 25.1204 52.859 25.1204 53.3012 25.1204C52.4168 22.8168 51.6799 20.6572 50.9429 18.6415Z" fill="white"/>
<path fill-rule="evenodd" clip-rule="evenodd" d="M7.90454 24.1126C15.2741 24.1126 22.6437 24.1126 29.8658 24.1126C29.8658 24.5445 29.8658 24.8325 29.8658 25.2644C22.4963 25.2644 15.1267 25.2644 7.90454 25.2644C7.90454 24.8325 7.90454 24.4005 7.90454 24.1126Z" fill="white"/>
<mask id="mask0_9_72" style="mask-type:alpha" maskUnits="userSpaceOnUse" x="6" y="25" width="26" height="2">
<path fill-rule="evenodd" clip-rule="evenodd" d="M6.43066 25.9635H31.4872V26.9713H6.43066V25.9635Z" fill="white"/>
</mask>
<g mask="url(#mask0_9_72)">
<path fill-rule="evenodd" clip-rule="evenodd" d="M6.43066 25.9635C14.832 25.9635 23.2333 25.9635 31.4872 25.9635V26.9713C23.0859 26.9713 14.6846 26.9713 6.43066 26.9713C6.43066 26.6834 6.43066 26.2515 6.43066 25.9635Z" fill="white"/>
</g>
</svg>
