<svg width="106" height="25" viewBox="0 0 106 25" fill="none" xmlns="http://www.w3.org/2000/svg">
<path d="M1.30957 5.472C1.30957 5.06 1.57357 4.693 1.96457 4.563L12.5066 1.049C12.7032 0.983424 12.9159 0.983424 13.1126 1.049L23.6546 4.563C24.0456 4.693 24.3096 5.06 24.3096 5.473V6.698C24.3096 7.228 23.8796 7.657 23.3516 7.657H2.26757C2.14168 7.657 2.01702 7.63218 1.90073 7.58398C1.78443 7.53577 1.67878 7.46512 1.58981 7.37605C1.50084 7.28699 1.43029 7.18126 1.38221 7.06492C1.33412 6.94857 1.30944 6.82389 1.30957 6.698V5.472ZM1.30957 22.032C1.30957 21.502 1.73957 21.073 2.26757 21.073H23.3516C23.8806 21.073 24.3096 21.503 24.3096 22.032V22.99C24.3096 23.52 23.8796 23.948 23.3516 23.948H2.26757C2.01349 23.948 1.76982 23.8471 1.59016 23.6674C1.4105 23.4877 1.30957 23.2441 1.30957 22.99V22.031V22.032Z" fill="white"/>
<path fill-rule="evenodd" clip-rule="evenodd" d="M3.22657 8.61499C2.97236 8.61499 2.72856 8.71598 2.5488 8.89573C2.36905 9.07548 2.26807 9.31928 2.26807 9.57349C2.26807 9.8277 2.36905 10.0715 2.5488 10.2513C2.72856 10.431 2.97236 10.532 3.22657 10.532H4.18457V18.198H3.22657C2.97236 18.198 2.72856 18.299 2.5488 18.4787C2.36905 18.6585 2.26807 18.9023 2.26807 19.1565C2.26807 19.4107 2.36905 19.6545 2.5488 19.8343C2.72856 20.014 2.97236 20.115 3.22657 20.115H22.3926C22.6468 20.115 22.8906 20.014 23.0703 19.8343C23.2501 19.6545 23.3511 19.4107 23.3511 19.1565C23.3511 18.9023 23.2501 18.6585 23.0703 18.4787C22.8906 18.299 22.6468 18.198 22.3926 18.198H21.4346V10.532H22.3926C22.6468 10.532 22.8906 10.431 23.0703 10.2513C23.2501 10.0715 23.3511 9.8277 23.3511 9.57349C23.3511 9.31928 23.2501 9.07548 23.0703 8.89573C22.8906 8.71598 22.6468 8.61499 22.3926 8.61499H3.22657ZM17.6016 10.532V18.198H14.7266V10.532H17.6016ZM10.8926 10.532V18.198H8.01757V10.532H10.8926Z" fill="white"/>
<path d="M37.3866 18.25H35.4666L30.7566 10.618H30.7046L30.7376 11.044C30.7976 11.856 30.8286 12.599 30.8286 13.271V18.25H29.4076V8.67203H31.3076L36.0046 16.265H36.0436C36.0346 16.165 36.0176 15.8 35.9916 15.171C35.9687 14.678 35.9554 14.1846 35.9516 13.691V8.67203H37.3866V18.25ZM42.9156 18.381C41.7886 18.381 40.9066 18.053 40.2686 17.398C39.6356 16.738 39.3186 15.833 39.3186 14.68C39.3186 13.496 39.6136 12.566 40.2036 11.889C40.7936 11.212 41.6036 10.874 42.6336 10.874C43.5906 10.874 44.3456 11.164 44.9006 11.744C45.4556 12.326 45.7326 13.124 45.7326 14.142V14.974H40.9046C40.9266 15.678 41.1166 16.219 41.4746 16.599C41.8326 16.975 42.3366 17.163 42.9876 17.163C43.4156 17.163 43.8136 17.123 44.1796 17.045C44.5896 16.9488 44.9892 16.8125 45.3726 16.638V17.89C44.9966 18.069 44.6166 18.195 44.2326 18.27C43.7981 18.3485 43.3571 18.3857 42.9156 18.381ZM42.6336 12.04C42.1446 12.04 41.7516 12.195 41.4546 12.505C41.1626 12.815 40.9876 13.267 40.9306 13.861H44.2196C44.2106 13.262 44.0666 12.811 43.7866 12.505C43.5066 12.195 43.1236 12.04 42.6336 12.04ZM50.1806 17.136C50.5566 17.136 50.9316 17.077 51.3076 16.959V18.119C51.1376 18.193 50.9176 18.254 50.6456 18.302C50.3715 18.3553 50.0928 18.3818 49.8136 18.381C48.3556 18.381 47.6256 17.612 47.6256 16.075V12.171H46.6366V11.489L47.6976 10.926L48.2226 9.39303H49.1726V11.004H51.2356V12.171H49.1716V16.049C49.1716 16.42 49.2636 16.695 49.4476 16.874C49.6346 17.049 49.8796 17.136 50.1806 17.136ZM52.9256 8.67203H55.7686C57.0886 8.67203 58.0396 8.86403 58.6256 9.24903C59.2156 9.63303 59.5096 10.24 59.5096 11.07C59.5096 11.629 59.3656 12.094 59.0776 12.465C58.7886 12.837 58.3746 13.07 57.8326 13.166V13.232C58.5046 13.359 58.9986 13.61 59.3126 13.985C59.6326 14.357 59.7916 14.861 59.7916 15.499C59.7916 16.359 59.4896 17.034 58.8876 17.523C58.2886 18.008 57.4546 18.25 56.3846 18.25H52.9256V8.67203ZM54.4916 12.629H55.9986C56.6536 12.629 57.1316 12.526 57.4326 12.321C57.7346 12.111 57.8846 11.758 57.8846 11.26C57.8846 10.81 57.7216 10.485 57.3936 10.284C57.0706 10.083 56.5546 9.98303 55.8476 9.98303H54.4916V12.629ZM54.4916 13.9V16.933H56.1556C56.8106 16.933 57.3046 16.809 57.6356 16.56C57.9726 16.307 58.1406 15.91 58.1406 15.368C58.1406 14.87 57.9706 14.501 57.6296 14.26C57.2896 14.02 56.7716 13.9 56.0766 13.9H54.4916ZM66.1526 18.25L65.8446 17.241H65.7926C65.4426 17.682 65.0916 17.984 64.7376 18.145C64.3836 18.302 63.9296 18.381 63.3746 18.381C62.6626 18.381 62.1056 18.189 61.7046 17.805C61.3066 17.42 61.1076 16.877 61.1076 16.173C61.1076 15.427 61.3856 14.863 61.9396 14.483C62.4946 14.103 63.3396 13.896 64.4756 13.861L65.7266 13.821V13.435C65.7266 12.972 65.6166 12.627 65.3986 12.4C65.1856 12.168 64.8506 12.053 64.3966 12.053C64.0256 12.053 63.6696 12.107 63.3286 12.216C62.9886 12.326 62.6606 12.454 62.3466 12.603L61.8486 11.503C62.2416 11.297 62.6716 11.142 63.1386 11.037C63.6066 10.928 64.0476 10.874 64.4626 10.874C65.3836 10.874 66.0786 11.074 66.5456 11.476C67.0176 11.878 67.2526 12.509 67.2526 13.369V18.25H66.1526ZM63.8596 17.202C64.4186 17.202 64.8666 17.047 65.2026 16.737C65.5426 16.422 65.7126 15.983 65.7126 15.42V14.791L64.7826 14.831C64.0586 14.857 63.5296 14.979 63.1976 15.197C62.8706 15.411 62.7066 15.741 62.7066 16.187C62.7066 16.51 62.8026 16.761 62.9946 16.94C63.1866 17.114 63.4746 17.202 63.8596 17.202ZM75.7756 18.25H74.2296V13.795C74.2296 13.236 74.1166 12.819 73.8896 12.544C73.6666 12.269 73.3106 12.131 72.8216 12.131C72.1716 12.131 71.6946 12.323 71.3936 12.708C71.0916 13.092 70.9416 13.736 70.9416 14.64V18.25H69.4016V11.005H70.6076L70.8236 11.955H70.9016C71.1206 11.609 71.4306 11.343 71.8316 11.155C72.2509 10.9633 72.7076 10.867 73.1686 10.873C74.9066 10.873 75.7756 11.758 75.7756 13.527V18.25ZM79.4056 14.424L80.2766 13.337L82.4646 11.005H84.2396L81.3246 14.116L84.4236 18.25H82.6156L80.2896 15.073L79.4446 15.767V18.25H77.9186V8.05603H79.4446V13.029L79.3656 14.424H79.4056ZM87.1356 18.25H85.5956V11.005H87.1356V18.25ZM85.5046 9.08503C85.5046 8.81003 85.5786 8.59803 85.7276 8.44903C85.8796 8.30103 86.0966 8.22703 86.3756 8.22703C86.6456 8.22703 86.8556 8.30103 87.0046 8.45003C87.1576 8.59803 87.2346 8.81003 87.2346 9.08503C87.2346 9.34703 87.1576 9.55503 87.0046 9.70703C86.8566 9.85603 86.6466 9.93003 86.3756 9.93003C86.0956 9.93003 85.8796 9.85603 85.7276 9.70703C85.5786 9.55503 85.5046 9.34703 85.5046 9.08503ZM95.7176 18.25H94.1716V13.795C94.1716 13.236 94.0576 12.819 93.8316 12.544C93.6076 12.269 93.2516 12.131 92.7626 12.131C92.1126 12.131 91.6366 12.323 91.3346 12.708C91.0336 13.092 90.8826 13.736 90.8826 14.64V18.25H89.3426V11.005H90.5486L90.7646 11.955H90.8436C91.0616 11.609 91.3716 11.343 91.7736 11.155C92.1929 10.9633 92.6496 10.867 93.1106 10.873C94.8486 10.873 95.7176 11.758 95.7176 13.527V18.25ZM103.979 11.005V11.85L102.741 12.079C102.854 12.232 102.948 12.419 103.022 12.642C103.097 12.865 103.134 13.101 103.134 13.35C103.134 14.097 102.876 14.684 102.361 15.112C101.845 15.54 101.136 15.754 100.231 15.754C100.001 15.754 99.7906 15.737 99.6026 15.702C99.2706 15.907 99.1046 16.147 99.1046 16.422C99.1046 16.588 99.1806 16.712 99.3346 16.796C99.4906 16.879 99.7766 16.92 100.192 16.92H101.457C102.256 16.92 102.863 17.09 103.278 17.431C103.693 17.771 103.9 18.263 103.9 18.905C103.9 19.726 103.562 20.359 102.885 20.805C102.208 21.25 101.23 21.473 99.9496 21.473C98.9626 21.473 98.2096 21.298 97.6896 20.949C97.1696 20.599 96.9096 20.102 96.9096 19.455C96.9096 19.01 97.0496 18.635 97.3296 18.329C97.6126 18.027 98.0086 17.818 98.5146 17.699C98.3083 17.6105 98.1314 17.4652 98.0046 17.28C97.8785 17.0995 97.8099 16.8852 97.8076 16.665C97.8076 16.394 97.8836 16.165 98.0376 15.977C98.1896 15.789 98.4166 15.603 98.7176 15.42C98.3397 15.2564 98.0201 14.9825 97.8006 14.634C97.5696 14.267 97.4536 13.839 97.4536 13.35C97.4536 12.564 97.7006 11.954 98.1936 11.522C98.6916 11.09 99.3996 10.874 100.317 10.874C100.522 10.874 100.736 10.889 100.959 10.919C101.186 10.945 101.356 10.974 101.47 11.004H103.979V11.005ZM98.2856 19.377C98.2856 19.709 98.4336 19.964 98.7306 20.143C99.0326 20.323 99.4536 20.412 99.9956 20.412C100.834 20.412 101.459 20.292 101.869 20.052C102.28 19.812 102.485 19.492 102.485 19.095C102.485 18.781 102.372 18.555 102.145 18.42C101.922 18.29 101.505 18.224 100.893 18.224H99.7266C99.2866 18.224 98.9346 18.326 98.6716 18.532C98.4146 18.742 98.2856 19.023 98.2856 19.377ZM98.9476 13.35C98.9476 13.804 99.0626 14.153 99.2946 14.398C99.5306 14.642 99.8666 14.765 100.304 14.765C101.195 14.765 101.64 14.289 101.64 13.337C101.64 12.865 101.529 12.503 101.306 12.249C101.088 11.991 100.754 11.863 100.304 11.863C99.8576 11.863 99.5196 11.989 99.2876 12.243C99.0606 12.496 98.9476 12.865 98.9476 13.35Z" fill="white"/>
</svg>
