<svg width="75" height="25" viewBox="0 0 75 25" fill="none" xmlns="http://www.w3.org/2000/svg">
<g clip-path="url(#clip0_9_99)">
<path d="M58.7411 5.65232C60.3096 4.13305 61.8117 3.53856 63.6232 3.9569C64.5952 4.17709 65.4788 4.50736 66.0311 5.34406C66.3845 5.85048 66.5833 5.71837 66.9368 5.36608C68.4611 3.78076 70.2725 3.40645 72.2607 4.28718C74.2709 5.16791 75.0662 6.79727 75.0441 8.97709C74.9999 13.2046 75.022 17.4101 75.022 21.6376C75.022 23.5092 74.1605 24.3679 72.2607 24.412C69.8969 24.478 69.8969 24.478 69.8969 22.1881C69.8969 18.4009 69.8969 14.6358 69.8969 10.8486C69.8969 9.15324 69.5656 8.66883 68.4611 8.64681C67.3565 8.6248 66.9368 9.21929 66.9368 10.9367C66.9368 14.3936 66.9368 17.8285 66.9368 21.2853C66.9368 23.5753 66.0973 24.412 63.8441 24.434C61.7455 24.434 61.7455 24.434 61.7455 22.3642C61.7455 18.445 61.7455 14.5257 61.7455 10.5844C61.7455 9.24131 61.3037 8.64681 60.3317 8.64681C59.3155 8.64681 58.7853 9.28534 58.7853 10.6064C58.7853 14.2395 58.7853 17.8725 58.7853 21.5055C58.7853 23.5092 57.9017 24.3899 55.8914 24.412C53.594 24.456 53.594 24.456 53.594 22.122C53.594 16.5514 53.6161 10.9808 53.5719 5.41012C53.5719 4.39727 53.8591 4.15507 54.809 4.22112C55.7589 4.3092 56.7309 4.28718 57.6808 4.22112C58.4981 4.15507 59.0062 4.3092 58.7411 5.65232Z" fill="white"/>
<path d="M26.0027 13.9312C26.0027 16.089 26.0248 18.2468 26.0027 20.4266C25.9585 22.9807 24.611 24.3239 22.0264 24.3899C20.7672 24.4119 19.5301 24.434 18.2709 24.3899C15.5538 24.2798 13.8528 22.5404 13.7865 19.8321C13.7644 18.3349 13.7644 16.8156 13.7865 15.3184C13.8307 12.8523 15.5538 11.0468 18.0279 10.8266C18.7128 10.7606 19.4197 10.7826 20.1266 10.7826C20.7672 10.7826 21.2974 10.6725 21.2974 9.83579C21.2974 9.02111 20.8556 8.84497 20.1487 8.88901C19.5301 8.91103 18.8895 8.88901 18.2709 8.88901C16.6362 8.86699 15.7305 8.03029 15.6201 6.44497C15.4654 4.24313 15.4654 4.24313 17.6524 4.24313C19.4197 4.24313 21.1869 4.24313 22.9542 4.24313C24.8319 4.24313 25.9585 5.34405 25.9806 7.23763C26.0248 9.43947 26.0027 11.6853 26.0027 13.9312ZM21.3195 17.4321C21.3195 16.8376 21.3195 16.2652 21.3195 15.6707C21.3195 15.3844 21.3416 15.1422 20.8997 15.0541C19.2208 14.7459 18.4698 15.3404 18.4698 17.0358C18.4698 17.4321 18.4477 17.8505 18.4698 18.2468C18.536 19.3697 19.0662 19.678 20.5905 19.7C21.8496 19.722 21.1869 18.8193 21.3195 18.3129C21.3857 18.0266 21.3195 17.7184 21.3195 17.4321Z" fill="white"/>
<path d="M39.8315 12.8303C39.721 15.0321 40.0745 17.7624 39.6768 20.4486C39.3455 22.7385 38.0642 23.9716 35.7668 24.2578C33.867 24.5 31.9451 24.3239 30.0232 24.3679C29.8244 24.3679 29.493 24.4119 29.493 24.1257C29.5372 22.9147 29.0733 21.6156 29.979 20.5147C30.465 19.8982 31.1277 19.634 31.923 19.656C32.652 19.656 33.4031 19.656 34.1321 19.656C34.7727 19.656 35.0599 19.3477 35.0599 18.6872C35.0599 18.0266 34.7285 17.7844 34.0879 17.7844C33.4693 17.8064 32.8287 17.8064 32.2102 17.7844C29.493 17.6523 27.6374 15.8688 27.5711 13.1826C27.5049 10.4303 27.5711 7.67799 27.549 4.9257C27.549 4.3312 27.7478 4.15505 28.3222 4.19909C29.6256 4.28716 31.2824 3.67065 32.1439 4.46331C32.8508 5.10184 32.2985 6.75322 32.3206 7.96422C32.3427 9.21927 32.3206 10.4523 32.3206 11.7073C32.3206 12.6541 32.8066 13.1165 33.7565 13.0945C34.6843 13.0725 35.0599 12.544 35.0599 11.6853C35.0599 9.48349 35.082 7.28166 35.0378 5.07982C35.0157 4.41927 35.1924 4.15505 35.8993 4.19909C36.9376 4.26514 37.9538 4.26514 38.992 4.19909C39.6768 4.15505 39.8536 4.41927 39.8536 5.07982C39.8094 7.47982 39.8315 9.90184 39.8315 12.8303Z" fill="white"/>
<path d="M0.399533 15.6486C0.399533 13.1826 0.399533 10.7385 0.399533 8.27248C0.421624 5.60826 1.81334 4.2211 4.48632 4.19909C5.81176 4.19909 7.13721 4.17707 8.46265 4.19909C10.8264 4.24312 12.6157 5.91652 12.6599 8.27248C12.7262 10.6945 12.7262 13.1165 12.6599 15.5385C12.6157 17.7844 10.9589 19.4138 8.68356 19.6339C8.50683 19.656 8.30801 19.656 8.13129 19.656C7.20348 19.656 6.09894 19.3477 5.41413 19.7661C4.61886 20.2284 5.2374 21.4395 5.08277 22.2982C4.88395 23.4872 4.02241 24.2578 2.71906 24.3679C0.377443 24.544 0.377441 24.544 0.377441 22.2541C0.399532 20.0523 0.399533 17.8505 0.399533 15.6486ZM5.08277 11.8174C5.08277 12.6321 5.08277 13.4248 5.08277 14.2395C5.08277 14.4817 4.9944 14.856 5.28158 14.922C5.9664 15.0541 6.6733 15.0982 7.33602 14.8119C7.91038 14.5697 7.99874 14.0853 7.99874 13.5349C7.97665 12.544 7.99874 11.5532 7.99874 10.5624C7.99874 9.10918 7.71157 8.93303 6.14312 8.82294C4.68514 8.71285 5.17113 9.68165 5.10486 10.3862C5.06068 10.8706 5.08277 11.355 5.08277 11.8174Z" fill="white"/>
<path d="M44.2275 15.8028C44.2275 13.8211 44.2054 11.8395 44.2496 9.85781C44.2717 9.10919 44.095 8.84497 43.2997 8.84497C41.422 8.889 41.3999 8.84497 41.422 6.95139C41.422 6.1147 41.1569 5.12387 41.5325 4.46332C41.8859 3.82479 42.9905 4.13304 43.7415 3.89084C44.8903 3.53855 45.7297 2.81194 46.4587 1.93121C47.011 1.27066 47.6074 0.676162 48.469 0.500016C49.0433 0.367906 49.5072 0.389923 49.3968 1.2046C49.3747 1.38075 49.3968 1.57891 49.3968 1.75506C49.4189 2.5257 49.1759 3.45047 49.5293 4.00093C49.9049 4.55139 50.8989 4.15506 51.6058 4.1991C52.0918 4.22112 52.2465 4.39726 52.2244 4.85965C52.2023 5.96057 52.1802 7.06148 52.2244 8.1624C52.2465 8.7569 52.0035 8.88901 51.4512 8.88901C49.3747 8.95506 49.3747 8.97708 49.3747 11.0248C49.3747 15.1202 49.3526 19.2376 49.3968 23.333C49.3968 24.1477 49.1979 24.478 48.3585 24.3679C47.8062 24.3018 47.254 24.3899 46.7017 24.3239C45.0891 24.1257 44.2275 23.1349 44.2054 21.5275C44.2275 19.6119 44.2275 17.7184 44.2275 15.8028Z" fill="white"/>
</g>
<defs>
<clipPath id="clip0_9_99">
<rect width="74.6667" height="24" fill="white" transform="translate(0.333252 0.5)"/>
</clipPath>
</defs>
</svg>
