<svg width="98" height="21" viewBox="0 0 98 21" fill="none" xmlns="http://www.w3.org/2000/svg">
<g clip-path="url(#clip0_9_107)">
<g opacity="0.5">
<path d="M82.7248 2.4844L87.0123 10.9977L77.9992 19.5151L82.7248 2.4844Z" fill="white"/>
</g>
<path d="M79.7559 2.4844L84.037 10.9977L75.0299 19.5151L79.7559 2.4844Z" fill="white"/>
<path d="M11.0171 16.4175L15.2918 1.01661H22.1261C24.262 1.01661 25.6888 1.35474 26.4147 2.05153C27.1353 2.74271 27.2742 3.87093 26.8397 5.45671C26.577 6.39085 26.1777 7.17497 25.629 7.7945C25.0849 8.41515 24.3672 8.90592 23.4835 9.26682C24.2332 9.44708 24.7102 9.80499 24.9241 10.3417C25.1368 10.8783 25.1122 11.661 24.8539 12.6869L24.334 14.8381L24.3325 14.8963C24.1825 15.4987 24.2269 15.8212 24.4713 15.8473L24.3139 16.4175H19.6905C19.7062 16.0552 19.7349 15.7312 19.7655 15.4591C19.7991 15.1807 19.8405 14.965 19.8816 14.8168L20.3127 13.2788C20.5299 12.479 20.5433 11.9211 20.3418 11.5998C20.1384 11.2698 19.6831 11.1075 18.9642 11.1075H17.0213L15.5397 16.4175H11.0171ZM17.9827 7.637H20.0637C20.793 7.637 21.3312 7.53288 21.6629 7.31754C21.9962 7.10033 22.2437 6.73346 22.3888 6.20275C22.5392 5.66309 22.5023 5.28689 22.2866 5.07305C22.0712 4.85584 21.5558 4.75022 20.7456 4.75022H18.784L17.9827 7.637Z" fill="white"/>
<path d="M39.5284 5.0528L36.377 16.4175H32.5474L33.0181 14.7526C32.344 15.4146 31.6544 15.9173 30.9591 16.2387C30.2694 16.5656 29.5416 16.7265 28.7754 16.7265C28.1421 16.7265 27.5983 16.6115 27.1605 16.3835C26.7175 16.1562 26.3876 15.8106 26.1655 15.3549C25.9685 14.956 25.8826 14.4633 25.9162 13.8748C25.9517 13.2955 26.1562 12.3185 26.5354 10.9503L28.1686 5.0528H32.3575L30.7277 10.9227C30.4896 11.7818 30.4328 12.3857 30.5489 12.7145C30.6698 13.0462 30.9927 13.2175 31.5166 13.2175C32.0444 13.2175 32.4881 13.0265 32.8546 12.6365C33.2263 12.2498 33.5133 11.6732 33.729 10.9059L35.3454 5.0528H39.5284Z" fill="white"/>
<path d="M38.0086 16.4175L42.2788 1.01661H48.1532C49.4494 1.01661 50.4525 1.09312 51.168 1.26107C51.8819 1.42192 52.4418 1.68317 52.8579 2.05153C53.3793 2.53334 53.6987 3.12973 53.8301 3.84518C53.9536 4.56063 53.8805 5.39401 53.6099 6.37257C53.1315 8.09419 52.2928 9.41349 51.0978 10.3353C49.8991 11.2452 48.4159 11.7024 46.6458 11.7024H43.8967L42.5909 16.4175H38.0086ZM44.9376 7.94117H46.4148C47.3698 7.94117 48.0412 7.82324 48.4346 7.59558C48.8153 7.36493 49.0858 6.95515 49.2508 6.37257C49.4158 5.78215 49.3732 5.36937 49.1239 5.13873C48.8839 4.90921 48.2708 4.79314 47.2896 4.79314H45.8154L44.9376 7.94117Z" fill="white"/>
<path d="M58.5377 16.4175L58.5803 15.3382C57.9048 15.8439 57.2207 16.2261 56.5328 16.4649C55.848 16.7083 55.1187 16.8318 54.3376 16.8318C53.1512 16.8318 52.3238 16.5093 51.8453 15.8853C51.3728 15.2602 51.2952 14.3626 51.6176 13.2176C51.9263 12.0875 52.4753 11.2556 53.2672 10.7238C54.0547 10.1856 55.3699 9.80049 57.2151 9.55417C57.4491 9.5161 57.7626 9.4855 58.1552 9.4381C59.5193 9.28023 60.2851 8.91673 60.4501 8.32369C60.5359 7.999 60.4836 7.7594 60.2821 7.61235C60.0877 7.45971 59.7242 7.3847 59.1994 7.3847C58.7639 7.3847 58.4134 7.47501 58.1261 7.66274C57.8391 7.85233 57.6248 8.12925 57.4797 8.51888H53.3956C53.7644 7.23952 54.5179 6.2729 55.6491 5.6265C56.7762 4.9689 58.2623 4.65242 60.103 4.65242C60.9684 4.65242 61.7436 4.7334 62.4288 4.90919C63.1152 5.0775 63.6167 5.31748 63.9422 5.60784C64.3426 5.97023 64.5796 6.38337 64.6472 6.84018C64.7252 7.29587 64.6397 7.94899 64.4009 8.80364L62.6442 15.1396C62.5878 15.3472 62.577 15.5323 62.6076 15.7006C62.6442 15.8611 62.7143 15.9984 62.8382 16.0966L62.7438 16.4175H58.5377ZM59.5558 11.343C59.111 11.5217 58.5329 11.693 57.8144 11.8811C56.6862 12.1838 56.0514 12.5876 55.914 13.0874C55.8189 13.4087 55.8573 13.6561 56.0144 13.8442C56.1693 14.023 56.4384 14.1133 56.8176 14.1133C57.5129 14.1133 58.0712 13.9375 58.4873 13.5904C58.9046 13.2389 59.2166 12.6869 59.4349 11.9256C59.473 11.7636 59.5066 11.6471 59.5282 11.5602L59.5558 11.343Z" fill="white"/>
<path d="M62.7757 20.8957L63.7054 17.5319H64.9041C65.3046 17.5319 65.6196 17.4528 65.8428 17.3088C66.0693 17.1591 66.2234 16.9068 66.3123 16.5672C66.3567 16.4175 66.3839 16.26 66.4026 16.0813C66.4145 15.8917 66.4145 15.6913 66.4026 15.4591L65.7629 5.05287H70.0029L69.9373 11.9483L73.6388 5.05287H77.5817L71.0379 16.3627C70.2952 17.6267 69.7555 18.4952 69.4129 18.9692C69.0748 19.4372 68.7538 19.8011 68.4422 20.0474C68.0384 20.3881 67.5875 20.6296 67.1009 20.7703C66.6131 20.914 65.8704 20.9856 64.872 20.9856C64.5847 20.9856 64.254 20.98 63.8965 20.9614C63.5415 20.9476 63.1627 20.9263 62.7757 20.8957Z" fill="white"/>
</g>
<defs>
<clipPath id="clip0_9_107">
<rect width="98" height="20" fill="white" transform="translate(0 0.5)"/>
</clipPath>
</defs>
</svg>
