<svg width="61" height="27" viewBox="0 0 61 27" fill="none" xmlns="http://www.w3.org/2000/svg">
<path fill-rule="evenodd" clip-rule="evenodd" d="M2.62639 20.6049H3.04577L2.65306 22.2363C2.59318 22.4763 2.60651 22.6626 2.68627 22.7824C2.76626 22.9023 2.91246 22.9622 3.13209 22.9622C3.34494 22.9622 3.52457 22.9023 3.66444 22.7824C3.80408 22.6624 3.8974 22.476 3.95728 22.2363L4.34977 20.6049H4.7757L4.37643 22.2764C4.28989 22.6359 4.13692 22.9091 3.91073 23.0888C3.6911 23.2686 3.39826 23.362 3.03899 23.362C2.67972 23.362 2.43343 23.2754 2.30034 23.0954C2.16725 22.9156 2.14059 22.6427 2.22713 22.2832L2.62639 20.6051V20.6049ZM53.1294 23.2885L53.7679 20.6049H55.2251L55.1386 20.9778H54.1073L53.9478 21.6502H54.979L54.8857 22.0299H53.8545L53.6482 22.8953H54.6796L54.5866 23.2883H53.1294V23.2885ZM53.0894 21.2575C52.996 21.1512 52.8831 21.0711 52.7633 21.0243C52.6433 20.9712 52.5105 20.9445 52.3573 20.9445C52.0712 20.9445 51.8184 21.0377 51.5922 21.2242C51.366 21.4108 51.2196 21.6572 51.1464 21.9566C51.0797 22.2431 51.1064 22.4828 51.2397 22.6759C51.366 22.8623 51.5655 22.9556 51.8317 22.9556C51.9847 22.9556 52.1379 22.929 52.2906 22.869C52.4438 22.8159 52.597 22.7291 52.7565 22.616L52.6368 23.1087C52.5037 23.1951 52.364 23.2553 52.2174 23.2953C52.071 23.3351 51.9246 23.3552 51.765 23.3552C51.5655 23.3552 51.3857 23.3217 51.2327 23.255C51.0795 23.1886 50.9534 23.0886 50.8533 22.9556C50.7536 22.829 50.6938 22.6759 50.6671 22.5029C50.6407 22.3297 50.6472 22.1434 50.7005 21.9435C50.7471 21.7439 50.8269 21.5636 50.9335 21.3907C51.0399 21.2174 51.1796 21.0644 51.3393 20.938C51.4989 20.8048 51.6719 20.705 51.8584 20.6383C52.0445 20.5719 52.2307 20.5386 52.4239 20.5386C52.5769 20.5386 52.7165 20.5585 52.8498 20.6051C52.9762 20.6519 53.0959 20.7182 53.2023 20.8115L53.0894 21.2575ZM48.9505 22.2298H49.6756L49.5559 21.617C49.5493 21.5772 49.5425 21.5304 49.5425 21.4838C49.5357 21.4307 49.5357 21.3773 49.5357 21.3174C49.5091 21.3773 49.4826 21.4304 49.4492 21.4838C49.4225 21.537 49.3961 21.5838 49.3694 21.6238L48.9503 22.2298H48.9505ZM49.8754 23.2885L49.7423 22.5961H48.7042L48.2383 23.2885H47.7927L49.7222 20.4986L50.3209 23.2885H49.8754ZM46.3622 23.2885L47.001 20.6049H48.4581L48.3716 20.9778H47.3401L47.1806 21.6437H48.2116L48.1185 22.0233H47.0873L46.7879 23.2817H46.3619V23.2885H46.3622ZM45.1045 21.7436H45.1843C45.4104 21.7436 45.5636 21.7169 45.6502 21.6636C45.7365 21.6102 45.7966 21.5171 45.8298 21.3771C45.8628 21.2306 45.8497 21.1241 45.783 21.0641C45.7168 21.0042 45.5767 20.9707 45.3639 20.9707H45.2839L45.1043 21.7434L45.1045 21.7436ZM44.9981 22.0833L44.7118 23.2817H44.3125L44.9515 20.5983H45.5438C45.7168 20.5983 45.8497 20.6117 45.9362 20.6318C46.0291 20.6519 46.1026 20.6917 46.1556 20.7448C46.2223 20.8115 46.2621 20.8914 46.282 20.9979C46.3021 21.098 46.2953 21.2111 46.2686 21.3375C46.2155 21.5507 46.1288 21.724 45.9959 21.8436C45.8628 21.9634 45.6963 22.0367 45.4968 22.0634L46.1023 23.2815H45.6231L45.0442 22.083H44.9976L44.9981 22.0833ZM42.3697 23.2885L43.0087 20.6049H44.4725L44.3862 20.9778H43.3547L43.1952 21.6502H44.2264L44.1336 22.0299H43.1021L42.896 22.8953H43.9273L43.8339 23.2883H42.37L42.3697 23.2885ZM41.9108 20.9712L41.3586 23.2817H40.9329L41.4851 20.9712H40.793L40.8796 20.5983H42.6895L42.6032 20.9712H41.911H41.9108ZM37.5792 23.2885L38.2447 20.4986L39.5089 22.1366C39.5423 22.1832 39.5753 22.23 39.6085 22.2832C39.6418 22.3363 39.6752 22.3964 39.715 22.4627L40.161 20.6049H40.5535L39.8881 23.3884L38.5972 21.7169C38.5639 21.6704 38.5305 21.6238 38.4975 21.577C38.4643 21.5238 38.4376 21.477 38.4175 21.4171L37.9719 23.2815H37.5795V23.2883L37.5792 23.2885ZM36.5412 23.2885L37.18 20.6049H37.6057L36.9669 23.2885H36.5412ZM33.4072 22.7492L33.7863 22.5893C33.7929 22.7092 33.8261 22.8023 33.8995 22.8623C33.9727 22.9222 34.0724 22.9556 34.2055 22.9556C34.3318 22.9556 34.4384 22.9222 34.5315 22.8491C34.6246 22.7759 34.6847 22.6827 34.7112 22.5629C34.7511 22.403 34.6581 22.263 34.4319 22.1434C34.3987 22.1233 34.3788 22.1099 34.3584 22.1034C34.1056 21.9569 33.9461 21.8305 33.8794 21.7106C33.813 21.5908 33.7994 21.4508 33.8396 21.2846C33.8927 21.0648 34.0059 20.8916 34.1854 20.7519C34.3652 20.6187 34.5647 20.5454 34.8045 20.5454C34.9974 20.5454 35.1502 20.5854 35.2634 20.6585C35.3766 20.732 35.4365 20.845 35.4564 20.985L35.084 21.1582C35.0505 21.0716 35.0105 21.0117 34.9574 20.9716C34.9043 20.9318 34.8377 20.9117 34.7577 20.9117C34.6445 20.9117 34.5448 20.945 34.4651 21.0049C34.3851 21.0648 34.332 21.1449 34.3053 21.2514C34.2656 21.4112 34.3788 21.5641 34.6379 21.7041C34.6581 21.7174 34.6712 21.7242 34.6847 21.7305C34.9109 21.8504 35.0639 21.9704 35.1303 22.0903C35.197 22.2099 35.2103 22.3499 35.1705 22.5296C35.1104 22.7827 34.9841 22.9823 34.7909 23.1356C34.5982 23.2819 34.3718 23.3622 34.1056 23.3622C33.8862 23.3622 33.7131 23.3086 33.5933 23.2021C33.4603 23.0956 33.4004 22.9423 33.4072 22.7494V22.7492ZM32.9613 20.9712L32.4091 23.2817H31.9834L32.5356 20.9712H31.8438L31.9298 20.5983H33.7398L33.6532 20.9712H32.9613ZM28.6297 23.2885L29.295 20.4986L30.5594 22.1366C30.5926 22.1832 30.6261 22.23 30.6593 22.2832C30.6923 22.3363 30.7257 22.3964 30.7657 22.4627L31.2115 20.6049H31.604L30.9388 23.3884L29.6479 21.7169C29.6145 21.6704 29.5815 21.6238 29.548 21.577C29.5148 21.5238 29.4882 21.477 29.4683 21.4171L29.0225 23.2815H28.63V23.2883L28.6297 23.2885ZM26.6867 23.2885L27.3255 20.6049H28.7827L28.6962 20.9778H27.6649L27.5052 21.6502H28.5364L28.4433 22.0299H27.4121L27.2058 22.8953H28.2373L28.1439 23.2883H26.6867V23.2885ZM25.9815 21.9634C25.9815 21.9435 25.9881 21.8834 26.0014 21.7902C26.0082 21.7104 26.0147 21.6505 26.0215 21.5971C25.9949 21.6572 25.9682 21.7169 25.935 21.7834C25.9018 21.8436 25.8618 21.9101 25.8152 21.97L24.7905 23.4016L24.4579 21.9435C24.4446 21.8836 24.4312 21.8237 24.4245 21.7703C24.4179 21.7172 24.4111 21.6572 24.4111 21.6039C24.3978 21.6572 24.3779 21.7169 24.358 21.7834C24.3379 21.8436 24.3115 21.9101 24.278 21.9768L23.6793 23.2953H23.2868L24.5709 20.4986L24.9369 22.1898C24.9435 22.2165 24.9503 22.263 24.957 22.323C24.9636 22.3831 24.9769 22.4629 24.9903 22.5561C25.0368 22.4763 25.0967 22.3831 25.1767 22.263C25.1966 22.23 25.2164 22.2099 25.2232 22.1898L26.381 20.4986L26.341 23.2953H25.9485L25.982 21.9634H25.9815ZM21.9294 23.2885L22.2223 22.0634L21.6899 20.6117H22.1355L22.4681 21.5241C22.4749 21.5505 22.4815 21.5772 22.4948 21.617C22.5081 21.6572 22.5149 21.697 22.528 21.7368C22.5547 21.697 22.5813 21.657 22.608 21.617C22.6347 21.5772 22.6613 21.5437 22.6878 21.5105L23.4664 20.6117H23.8921L22.648 22.0566L22.3551 23.2815H21.9292V23.2883L21.9294 23.2885ZM19.9532 22.2298H20.6783L20.5586 21.617C20.5518 21.5772 20.5452 21.5304 20.5452 21.4838C20.5385 21.4307 20.5385 21.3773 20.5385 21.3174C20.5118 21.3773 20.4851 21.4304 20.4519 21.4838C20.4253 21.537 20.3988 21.5838 20.3719 21.6238L19.9528 22.2298H19.9532ZM20.8713 23.2885L20.7382 22.5961H19.7002L19.2345 23.2885H18.7886L20.7183 20.4986L21.3171 23.2885H20.8713ZM18.2032 21.7237H18.3096C18.5426 21.7237 18.7089 21.697 18.802 21.6437C18.8951 21.5905 18.9549 21.4974 18.9884 21.364C19.0214 21.2242 19.0015 21.1177 18.9351 21.0646C18.8619 21.0047 18.7154 20.978 18.496 20.978H18.3896L18.2032 21.724V21.7237ZM18.09 22.0833L17.8039 23.2885H17.4047L18.0434 20.6049H18.6888C18.8817 20.6049 19.0148 20.6182 19.1014 20.6381C19.1879 20.658 19.2546 20.6915 19.3077 20.7446C19.3741 20.8045 19.4206 20.8911 19.4408 20.9976C19.4606 21.1044 19.4541 21.2174 19.4274 21.3438C19.3942 21.4705 19.3477 21.5903 19.2745 21.6968C19.2012 21.8033 19.1147 21.8899 19.0216 21.9499C18.9418 21.9964 18.8553 22.0362 18.7622 22.0564C18.6691 22.0763 18.5227 22.0898 18.3363 22.0898H18.0902V22.083L18.09 22.0833ZM14.1177 22.8889H14.4769C14.6699 22.8889 14.8229 22.8756 14.9295 22.8491C15.036 22.8227 15.129 22.7759 15.2156 22.716C15.3353 22.6294 15.4352 22.5228 15.515 22.3897C15.595 22.263 15.6548 22.1099 15.6946 21.937C15.7344 21.7638 15.7477 21.6172 15.7278 21.491C15.7079 21.3642 15.6614 21.2511 15.5814 21.1645C15.5215 21.098 15.4483 21.058 15.3487 21.0313C15.2488 21.0047 15.0958 20.9915 14.8762 20.9915H14.5703L14.1177 22.8892V22.8889ZM13.5986 23.2885L14.2376 20.6049H14.8098C15.1824 20.6049 15.442 20.6248 15.5814 20.6648C15.7213 20.7048 15.8408 20.7647 15.9341 20.8579C16.0539 20.9778 16.1339 21.1311 16.1671 21.3106C16.2003 21.4972 16.187 21.7102 16.1339 21.9433C16.0738 22.183 15.9875 22.3892 15.8677 22.5755C15.7479 22.7621 15.595 22.9086 15.4153 23.0285C15.2822 23.1218 15.1358 23.1818 14.9761 23.2216C14.8231 23.2616 14.5901 23.2815 14.284 23.2815H13.5986V23.2883V23.2885ZM11.6491 23.2885L12.2879 20.6049H13.7451L13.6585 20.9778H12.627L12.4673 21.6502H13.4988L13.4057 22.0299H12.3742L12.1679 22.8953H13.1994L13.1063 23.2883H11.6491V23.2885ZM10.6176 23.2885L11.2564 20.6049H11.6821L11.0433 23.2885H10.6174H10.6176ZM8.68792 23.2885L9.3267 20.6049H10.7839L10.6974 20.9778H9.66608L9.50633 21.6437H10.5376L10.4445 22.0233H9.41301L9.11362 23.2817H8.68769V23.2885H8.68792ZM7.65642 23.2885L8.2952 20.6049H8.72091L8.08213 23.2885H7.6562H7.65642ZM4.71559 23.2885L5.38081 20.4986L6.64504 22.1366C6.67825 22.1832 6.71147 22.23 6.74491 22.2832C6.77813 22.3363 6.81134 22.3964 6.85134 22.4627L7.29715 20.6049H7.68964L7.02442 23.3884L5.73353 21.7169C5.70031 21.6704 5.6671 21.6238 5.63366 21.577C5.60044 21.5238 5.57378 21.477 5.55389 21.4171L5.10808 23.2815H4.71559V23.2883V23.2885Z" fill="white"/>
<path fill-rule="evenodd" clip-rule="evenodd" d="M45.3841 18.2677H42.4631L46.522 3.59842H49.4429L45.3841 18.2677ZM21.1109 17.3487C20.9511 17.928 20.4187 18.3342 19.82 18.3342H4.76241C4.34981 18.3342 4.04387 18.1942 3.84412 17.9147C3.6446 17.6348 3.59805 17.2886 3.71781 16.8759L7.39074 3.63844H10.3119L7.03147 15.4642H18.7157L21.9959 3.63844H24.9171L21.1111 17.3487H21.1109ZM43.867 4.0579C43.6675 3.77819 43.3545 3.63844 42.9288 3.63844H26.8798L26.088 6.51495H40.6866L39.835 9.58479H28.1575V9.57801H25.2366L22.8146 18.3344H25.7355L27.359 12.4613H40.4871C40.8997 12.4613 41.2856 12.3213 41.6449 12.0418C42.0042 11.7621 42.2439 11.4159 42.3569 11.003L43.9804 5.13017C44.1067 4.69082 44.067 4.33784 43.8672 4.05813L43.867 4.0579Z" fill="white"/>
<path opacity="0.5" fill-rule="evenodd" clip-rule="evenodd" d="M54.4865 3.62509L58.1795 10.9763L50.4145 18.3276L51.338 14.993L55.5846 10.9763L53.5644 6.95475L54.4865 3.62509Z" fill="white"/>
<path fill-rule="evenodd" clip-rule="evenodd" d="M51.8918 3.62509L55.5847 10.9763L47.8129 18.3276L51.8918 3.62509Z" fill="white"/>
</svg>
