<svg width="42" height="29" viewBox="0 0 42 29" fill="none" xmlns="http://www.w3.org/2000/svg">
<path d="M13.9075 9.11905C13.1706 12.0714 10.1759 13.8682 7.21877 13.1324C4.26335 12.3961 2.46391 9.40564 3.20077 6.45333C3.93763 3.50044 6.93234 1.70358 9.88832 2.43939C12.8454 3.17576 14.6443 6.16674 13.9075 9.11905Z" fill="white"/>
<path d="M10.9868 7.00098C11.0967 6.26745 10.5369 5.87339 9.77272 5.61012L10.021 4.61673L9.41511 4.46604L9.17366 5.43328C9.01422 5.39347 8.85136 5.35651 8.6885 5.31955L8.93165 4.34606L8.3269 4.19537L8.07862 5.1882C7.94925 5.15914 7.82017 5.12881 7.6914 5.09722L7.69254 5.09437L6.85716 4.88626L6.69658 5.53165C6.69658 5.53165 7.14587 5.63457 7.13619 5.64082C7.38105 5.70224 7.42547 5.8643 7.41806 5.9928L7.13562 7.12437C7.1527 7.12892 7.17434 7.13518 7.19826 7.14484C7.17833 7.13916 7.15726 7.13404 7.13448 7.12892L6.73872 8.71426C6.70854 8.78818 6.6328 8.9002 6.4614 8.85755C6.46709 8.86665 6.02122 8.74781 6.02122 8.74781L5.72055 9.44039L6.50866 9.63657C6.65501 9.67296 6.79908 9.71163 6.9403 9.74745L6.68974 10.7522L7.29449 10.9029L7.54277 9.90894C7.70791 9.95386 7.86849 9.99537 8.02509 10.034L7.77795 11.0235L8.38327 11.1741L8.63383 10.1711C9.6668 10.3667 10.443 10.2876 10.7698 9.3551C11.0335 8.60451 10.7567 8.17122 10.2135 7.88861C10.6092 7.79763 10.9071 7.53777 10.9868 7.00098ZM9.60302 8.93829C9.41625 9.68888 8.1498 9.28345 7.73923 9.18167L8.07179 7.85051C8.48236 7.95286 9.79891 8.1553 9.60359 8.93829H9.60302ZM9.79094 6.99018C9.62011 7.67253 8.56606 7.32567 8.22383 7.24037L8.52563 6.03375C8.8673 6.11904 9.96804 6.27769 9.79037 6.99018H9.79094Z" fill="#777777"/>
<path d="M21.4316 13.2968C24.4798 13.2968 26.9506 10.8295 26.9506 7.78564C26.9506 4.74178 24.4792 2.27451 21.4316 2.27451C18.3833 2.27451 15.9125 4.74235 15.9125 7.78564C15.9125 10.8295 18.3839 13.2968 21.4316 13.2968Z" fill="white"/>
<path d="M23.1541 5.89724C22.8774 5.27687 22.2419 5.14779 21.4629 5.2746L21.2123 4.3176L20.6207 4.46828L20.8667 5.42358C20.7118 5.46281 20.5523 5.49522 20.3946 5.53901L20.1469 4.59054L19.5552 4.74179L19.8058 5.69879C19.4096 5.80192 19.013 5.9039 18.6162 6.00471L18.7802 6.62736C18.7802 6.62736 19.2141 6.50738 19.2101 6.51818C19.4493 6.45677 19.5621 6.57505 19.6173 6.6865L20.304 9.30844C20.3126 9.38464 20.2995 9.51599 20.1332 9.5575C20.1423 9.56205 19.7038 9.66668 19.7038 9.66668L19.7682 10.3922C19.7682 10.3922 20.82 10.1256 20.9595 10.0931L21.214 11.0609L21.8034 10.9103L21.5511 9.93564C21.7151 9.89811 21.87 9.85887 22.0249 9.81964L22.2772 10.7897L22.8688 10.639L22.616 9.6735C23.5243 9.45458 24.1666 8.89107 24.0339 8.02562C23.9496 7.50589 23.3734 7.07715 22.8933 7.02938C23.1854 6.76724 23.3363 6.38911 23.1547 5.89781L23.1541 5.89724ZM22.8688 8.17858C22.9861 9.0355 21.7812 9.14013 21.3803 9.24305L21.0329 7.9625C21.4355 7.8573 22.6718 7.4223 22.8688 8.17858ZM22.1422 6.43517C22.2664 7.19542 21.2368 7.28526 20.902 7.36999L20.5876 6.20771C20.9219 6.12242 21.8899 5.7312 22.1422 6.43517Z" fill="#777777"/>
<path d="M39.8286 7.78564C39.8286 10.8233 37.3509 13.2973 34.3078 13.2973C31.2647 13.2973 28.7905 10.8238 28.7905 7.78564C28.7905 4.74804 31.2687 2.27451 34.3118 2.27451C35.0366 2.27421 35.7543 2.41657 36.4239 2.69345C37.0935 2.97033 37.7019 3.37631 38.2142 3.88815C38.7266 4.4 39.1329 5.00768 39.4099 5.67644C39.6869 6.3452 39.8292 7.06193 39.8286 7.78564Z" fill="white"/>
<path d="M33.4309 4.39035L32.5699 7.63039L31.9737 7.84818L31.6929 8.91378L32.2891 8.696L31.8023 10.5435H37.0856L37.4477 9.16682H34.2645L34.6273 7.82088L35.2075 7.6031L35.4883 6.53749L34.9074 6.75527L35.535 4.375L33.4309 4.39035Z" fill="#777777"/>
<path d="M8.5547 26.1569C11.6028 26.1569 14.0738 23.6895 14.0738 20.6458C14.0738 17.602 11.6028 15.1346 8.5547 15.1346C5.50661 15.1346 3.03564 17.602 3.03564 20.6458C3.03564 23.6895 5.50661 26.1569 8.5547 26.1569Z" fill="white"/>
<path fill-rule="evenodd" clip-rule="evenodd" d="M11.554 17.8901H10.6827L9.30696 19.3953C8.89126 19.8502 8.21818 19.8502 7.80248 19.3953L6.42614 17.8901H5.55546L7.36743 19.8718C8.02286 20.5894 9.08658 20.5894 9.74201 19.8718L11.554 17.8901ZM5.54407 23.4013H6.41532L7.80248 21.883C8.21818 21.4287 8.89126 21.4287 9.30696 21.883L10.6941 23.4013H11.5654L9.74201 21.4071C9.08658 20.6895 8.02286 20.6895 7.36743 21.4071L5.54407 23.4013Z" fill="#777777"/>
<path d="M34.3107 26.1569C37.3588 26.1569 39.8297 23.6895 39.8297 20.6458C39.8297 17.602 37.3588 15.1346 34.3107 15.1346C31.2626 15.1346 28.7916 17.602 28.7916 20.6458C28.7916 23.6895 31.2626 26.1569 34.3107 26.1569Z" fill="white"/>
<path opacity="0.1" d="M34.3107 16.4311L31.714 20.7299L34.3107 19.5574V16.4311Z" fill="#777777"/>
<path opacity="0.75" d="M34.3107 19.5574L31.714 20.7299L34.3107 22.2578V19.5574ZM36.9079 20.7299L34.3113 16.4311V19.5574L36.9079 20.7299Z" fill="#777777"/>
<path d="M34.3107 22.2578L36.9079 20.7299L34.3112 19.5574V22.2578H34.3107Z" fill="#777777"/>
<path opacity="0.1" d="M31.7134 21.2269L34.3107 24.8866V22.7553L31.714 21.2274L31.7134 21.2269Z" fill="#777777"/>
<path opacity="0.4" d="M34.3107 22.7553V24.8865L36.9079 21.2274L34.3112 22.7553H34.3107Z" fill="#777777"/>
<path d="M21.4327 26.1568C24.4809 26.1568 26.9523 23.689 26.9523 20.6457C26.9523 17.6018 24.4809 15.134 21.4327 15.134C18.385 15.134 15.9136 17.6018 15.9136 20.6457C15.9136 23.689 18.385 26.1568 21.4327 26.1568Z" fill="white"/>
<path d="M22.0209 21.1541V21.1529C21.7968 21.1646 21.5723 21.1693 21.3479 21.1672C21.12 21.1678 20.8922 21.1631 20.6645 21.1529V21.1541C19.3167 21.0949 18.311 20.8607 18.311 20.5798C18.311 20.3 19.3172 20.0652 20.6645 20.0054V20.9209C20.7522 20.9272 21.0051 20.9425 21.3536 20.9425C21.7727 20.9425 21.9822 20.9244 22.0209 20.9209V20.0066C23.3665 20.0669 24.3688 20.3006 24.3688 20.5809C24.3688 20.8607 23.3654 21.0949 22.0209 21.1552V21.1541ZM22.0209 19.9116V19.0928H23.8978V17.8447H18.7888V19.0928H20.6651V19.9116C19.1401 19.9816 17.9938 20.2829 17.9938 20.6446C17.9938 21.0062 19.1407 21.3076 20.6651 21.3781V24.0029H22.0221V21.3781C23.5448 21.3082 24.6894 21.0068 24.6894 20.6457C24.6894 20.2846 23.5448 19.9827 22.0221 19.9122" fill="#777777"/>
</svg>
