<svg width="56" height="23" viewBox="0 0 56 23" fill="none" xmlns="http://www.w3.org/2000/svg">
<g clip-path="url(#clip0_9_63)">
<path d="M26.3213 11.2478V17.6967H24.2755V1.77072H29.7014C30.3491 1.75719 30.993 1.87206 31.5961 2.1087C32.1991 2.34534 32.7494 2.69906 33.215 3.14946C33.6853 3.57251 34.0596 4.09133 34.3128 4.67106C34.5659 5.25079 34.692 5.87799 34.6827 6.51051C34.6961 7.14642 34.5719 7.77772 34.3186 8.36114C34.0653 8.94457 33.6888 9.46632 33.215 9.89063C32.2662 10.7954 31.095 11.2473 29.7014 11.2465H26.3213V11.2478ZM26.3213 3.73145V9.29085H29.7523C30.1284 9.302 30.5027 9.23453 30.8513 9.09274C31.1998 8.95095 31.515 8.73797 31.7765 8.46743C32.0367 8.21447 32.2435 7.91192 32.3847 7.57765C32.526 7.24338 32.5987 6.88419 32.5987 6.52132C32.5987 6.15844 32.526 5.79925 32.3847 5.46498C32.2435 5.13071 32.0367 4.82816 31.7765 4.57521C31.5183 4.29896 31.2042 4.08076 30.8552 3.93508C30.5062 3.7894 30.1303 3.71955 29.7523 3.73018H26.3213V3.73145Z" fill="white"/>
<path d="M39.397 6.44443C40.9092 6.44443 42.1028 6.84852 42.9779 7.6567C43.853 8.46487 44.2902 9.57294 44.2893 10.9809V17.6967H42.3324V16.1845H42.2435C41.3963 17.4298 40.2696 18.0525 38.8633 18.0525C37.6629 18.0525 36.6586 17.6967 35.8505 16.9851C35.4626 16.6585 35.1525 16.2494 34.9428 15.7878C34.7331 15.3261 34.629 14.8235 34.6382 14.3165C34.6382 13.189 35.0643 12.2923 35.9165 11.6264C36.7688 10.9606 37.9065 10.6268 39.3297 10.6251C40.5445 10.6251 41.545 10.8475 42.3311 11.2922V10.8246C42.3335 10.479 42.2588 10.1372 42.1127 9.82399C41.9665 9.5108 41.7525 9.23405 41.4861 9.01383C40.9451 8.52571 40.24 8.25938 39.5114 8.26791C38.3686 8.26791 37.4643 8.74994 36.7984 9.71399L34.9965 8.57924C35.9877 7.15603 37.4545 6.44443 39.397 6.44443ZM36.7501 14.361C36.7488 14.6214 36.8096 14.8783 36.9277 15.1104C37.0457 15.3425 37.2175 15.543 37.4287 15.6953C37.8812 16.0512 38.4428 16.2398 39.0184 16.229C39.8817 16.2275 40.7092 15.8839 41.3196 15.2734C41.9974 14.6355 42.3362 13.887 42.3362 13.028C41.6983 12.5197 40.8088 12.2656 39.6677 12.2656C38.8367 12.2656 38.1437 12.466 37.5888 12.8667C37.0284 13.2733 36.7501 13.7676 36.7501 14.361Z" fill="white"/>
<path d="M55.5222 6.80029L48.6908 22.5001H46.5789L49.114 17.0067L44.622 6.80029H46.8457L50.0924 14.6279H50.1369L53.2947 6.80029H55.5222Z" fill="white"/>
<path d="M18.054 9.85759C18.0548 9.23411 18.0021 8.61172 17.8964 7.99725H9.26825V11.521H14.2101C14.109 12.0838 13.8949 12.6202 13.5809 13.0981C13.2668 13.5759 12.8593 13.9852 12.3828 14.3013V16.5886H15.3321C17.059 14.9964 18.054 12.6417 18.054 9.85759Z" fill="white"/>
<path d="M9.26824 18.7984C11.7373 18.7984 13.8162 17.9877 15.3321 16.5899L12.3828 14.3026C11.5619 14.8591 10.5047 15.1768 9.26824 15.1768C6.88182 15.1768 4.8563 13.5681 4.13198 11.4002H1.09369V13.7574C1.85519 15.2727 3.02287 16.5466 4.46636 17.4367C5.90986 18.3269 7.57235 18.7983 9.26824 18.7984Z" fill="white"/>
<path d="M4.13157 11.4003C3.74865 10.2643 3.74865 9.03417 4.13157 7.8982V5.54102H1.09328C0.452674 6.81574 0.119049 8.22262 0.119049 9.64926C0.119049 11.0759 0.452674 12.4828 1.09328 13.7575L4.13157 11.4003Z" fill="white"/>
<path d="M9.26824 4.12155C10.573 4.10023 11.8337 4.59321 12.778 5.49392L15.3893 2.88259C13.7334 1.32733 11.5398 0.473458 9.26824 0.49999C7.57235 0.500067 5.90986 0.971497 4.46636 1.86165C3.02287 2.7518 1.85519 4.02563 1.09369 5.54094L4.13198 7.89813C4.8563 5.73028 6.88182 4.12155 9.26824 4.12155Z" fill="white"/>
</g>
<defs>
<clipPath id="clip0_9_63">
<rect width="55.3996" height="22" fill="white" transform="translate(0.119049 0.5)"/>
</clipPath>
</defs>
</svg>
