<svg width="93" height="25" viewBox="0 0 93 25" fill="none" xmlns="http://www.w3.org/2000/svg">
<g clip-path="url(#clip0_9_95)">
<path d="M23.4955 24.5V0.5H24.7196V24.5H23.4955ZM36.351 3.62036V3.50012H41.2483V15.5001C41.2483 18.8138 38.5075 21.5001 35.1266 21.5001C31.7457 21.5001 29.0049 18.8138 29.0049 15.5001H33.9023C33.9023 16.1628 34.4503 16.7001 35.1266 16.7001C35.8027 16.7001 36.351 16.1628 36.351 15.5001V3.62036ZM54.0349 9.94215C54.5766 10.517 54.9946 11.2158 55.2771 12.0196C55.5548 12.8116 55.6956 13.708 55.6956 14.6841C55.6956 14.9181 55.6866 15.131 55.6689 15.3167C55.6435 15.5754 55.6195 15.6892 55.571 15.7854L55.4358 16.0521H46.9656C47.0072 16.2422 47.0689 16.4219 47.1504 16.5885C47.3027 16.9014 47.5062 17.1767 47.755 17.4071C48.0031 17.6368 48.2935 17.8182 48.6184 17.9469C48.9412 18.075 49.2955 18.1401 49.6716 18.1401C50.4126 18.1401 50.9768 17.9812 51.348 17.668L51.5466 17.5007L55.1368 18.4809L54.7539 19.0336C54.415 19.5232 53.9904 19.9574 53.4916 20.3241C52.9942 20.6896 52.4203 20.98 51.7856 21.1874C51.1506 21.395 50.4395 21.5001 49.6716 21.5001C48.7991 21.5001 47.9568 21.3477 47.1681 21.0472C46.374 20.745 45.667 20.2977 45.0671 19.7176C44.4684 19.1397 43.9833 18.4254 43.6253 17.5948C43.2666 16.7637 43.0849 15.8085 43.0849 14.7561C43.0849 13.7692 43.258 12.8594 43.5996 12.052C43.9407 11.2468 44.4079 10.5453 44.9885 9.96711C45.5693 9.38943 46.2476 8.93463 47.005 8.61519C47.7651 8.29455 48.5636 8.13207 49.3778 8.13207C50.3511 8.13207 51.241 8.28903 52.0224 8.59911C52.8128 8.91231 53.4896 9.36423 54.0349 9.94215ZM47.0792 13.0521H51.7775C51.7505 12.9434 51.7163 12.8366 51.6756 12.7324C51.5786 12.485 51.4305 12.2627 51.2353 12.0714C51.038 11.8778 50.7872 11.7194 50.4902 11.6001C50.1917 11.4806 49.8256 11.4201 49.4023 11.4201C49.0325 11.4201 48.6992 11.483 48.4125 11.607C48.1213 11.7333 47.8726 11.8998 47.6727 12.1019C47.4673 12.31 47.3008 12.5481 47.1779 12.8092C47.1397 12.8903 47.1066 12.9714 47.0792 13.0521ZM77.4214 10.0391C78.0191 10.6338 78.4912 11.3447 78.8244 12.1521C79.1567 12.959 79.3252 13.8513 79.3252 14.8041C79.3252 15.7566 79.1567 16.6523 78.8249 17.4662C78.4922 18.2822 78.0196 18.9976 77.4214 19.5928C76.8234 20.1873 76.1113 20.6586 75.3047 20.9939C74.4964 21.3297 73.5999 21.5001 72.6403 21.5001C71.6975 21.5001 70.806 21.3299 69.9901 20.9946C69.1732 20.6589 68.4596 20.1866 67.869 19.5904C67.2799 18.9959 66.8124 18.2812 66.4801 17.4662C66.1483 16.6533 65.9799 15.7576 65.9799 14.8041C65.9799 13.8501 66.1486 12.958 66.4809 12.1521C66.8134 11.3457 67.2804 10.6355 67.8693 10.0415C68.4596 9.44559 69.1732 8.97303 69.9901 8.63727C70.806 8.30199 71.6975 8.13207 72.6403 8.13207C73.5999 8.13207 74.4964 8.30223 75.3045 8.63799C76.1115 8.97327 76.8236 9.44487 77.4214 10.0391ZM75.2432 16.2417C75.4012 15.8342 75.481 15.3506 75.481 14.8041C75.481 14.2583 75.4012 13.7795 75.2442 13.3809C75.0892 12.9878 74.8779 12.6549 74.6156 12.3909C74.3566 12.1302 74.0566 11.9339 73.7243 11.8074C73.3822 11.6778 73.0179 11.6121 72.6403 11.6121C72.2627 11.6121 71.8979 11.6778 71.5563 11.8074C71.2259 11.9332 70.9318 12.1278 70.6816 12.3863C70.4232 12.653 70.2095 12.9897 70.0459 13.3874C69.8826 13.7841 69.8001 14.2605 69.8001 14.8041C69.8001 15.3484 69.8828 15.8301 70.0469 16.235C70.2105 16.6398 70.4237 16.9797 70.6816 17.2454C70.9343 17.5067 71.2311 17.7066 71.5641 17.8394C71.903 17.9752 72.2652 18.0441 72.6403 18.0441C73.0152 18.0441 73.3773 17.9752 73.7167 17.8396C74.0515 17.7057 74.3541 17.5043 74.6156 17.241C74.8774 16.9778 75.0882 16.6415 75.2432 16.2417ZM92.3788 11.3243C92.5725 11.9291 92.6704 12.5828 92.6704 13.268V21.14H88.8507V13.748C88.8507 13.1334 88.696 12.6095 88.3911 12.1909C88.1188 11.8177 87.6284 11.636 86.8918 11.636C86.2314 11.636 85.7539 11.8371 85.4326 12.2507C85.0798 12.7052 84.9084 13.2498 84.9084 13.916V21.14H81.0887V8.49202H84.8347V9.1897C85.0954 8.96986 85.3827 8.7877 85.6922 8.64538C86.3999 8.32066 87.1327 8.15602 87.8713 8.15602C88.6727 8.15602 89.3836 8.29162 89.984 8.55898C90.5891 8.82874 91.0977 9.2089 91.4961 9.68938C91.8839 10.1586 92.181 10.7084 92.3788 11.324V11.3243ZM63.6175 17.8197C63.8638 17.7895 63.9346 17.7746 63.9505 17.7705L64.5597 17.62V20.8646L64.2524 20.9853C64.1831 21.0127 64.0526 21.0573 63.6567 21.16C63.3347 21.2436 62.9012 21.2841 62.3314 21.2841C61.0941 21.2841 60.0975 20.9313 59.3695 20.2356C58.6376 19.5369 58.2666 18.5575 58.2666 17.3241V11.9241H56.7974V8.49212H58.2661L58.2666 4.91588H62.0621V8.49212H64.5353V11.9241H62.0621V16.8679C62.0621 17.2372 62.1375 17.5039 62.2798 17.6388C62.4269 17.7782 62.7073 17.8521 63.0905 17.8521C63.2651 17.8521 63.4422 17.8411 63.6175 17.8197ZM2.10403 8.3702C1.99923 8.39756 1.91352 8.2886 1.96544 8.19524C3.12636 6.1082 5.12253 4.47236 7.65055 3.80852C10.1783 3.14492 12.7419 3.5834 14.812 4.82204C14.9045 4.87748 14.8859 5.0138 14.7811 5.0414L2.10403 8.3702ZM17.6465 7.47817C18.1977 8.28097 18.6262 9.18433 18.8961 10.1712C19.1659 11.1581 19.2555 12.1502 19.188 13.1155C19.1843 13.1669 19.1473 13.2103 19.0966 13.2235L2.54154 17.5706C2.49085 17.5838 2.43673 17.5644 2.40735 17.5219C1.8564 16.7189 1.42788 15.8158 1.15779 14.8289C0.888185 13.842 0.798318 12.8498 0.865902 11.8843C0.869575 11.8332 0.90655 11.7898 0.957238 11.7763L17.5123 7.42921C17.563 7.41601 17.6174 7.43545 17.6465 7.47817ZM17.95 16.6298C18.0545 16.6024 18.1402 16.7114 18.0883 16.8048C16.9276 18.8918 14.9312 20.5276 12.4035 21.1915C9.87543 21.8551 7.31214 21.4166 5.24202 20.178C5.14946 20.1225 5.16807 19.9862 5.27263 19.9586L17.95 16.6298Z" fill="white"/>
</g>
<defs>
<clipPath id="clip0_9_95">
<rect width="91.8261" height="24" fill="white" transform="translate(0.84436 0.5)"/>
</clipPath>
</defs>
</svg>
