<svg width="114" height="25" viewBox="0 0 114 25" fill="none" xmlns="http://www.w3.org/2000/svg">
<g clip-path="url(#clip0_9_145)">
<path d="M36.4709 13.6657C36.4709 14.6943 36.265 15.4486 35.7157 15.9285C35.1665 16.4771 34.4799 16.7514 33.4501 16.7514C32.8322 16.7514 32.283 16.6143 31.8024 16.4086C31.3905 16.2028 30.9786 15.7914 30.7726 15.4485C30.5666 15.0371 30.4293 14.5571 30.4293 13.94V13.7343H32.283C32.283 14.1457 32.3516 14.5571 32.5576 14.7628C32.6949 14.9685 32.9695 15.0371 33.3815 15.0371C33.6561 15.0371 33.9307 14.9685 34.068 14.8314C34.2053 14.6943 34.274 14.5571 34.3426 14.42C34.4113 14.2143 34.4113 14.0085 34.4113 13.7343V7.56284H36.4709V13.6657Z" fill="white"/>
<path d="M39.629 8.24856C39.5604 8.3857 39.4231 8.52285 39.2858 8.59142C39.1485 8.65999 38.9425 8.72856 38.6679 8.72856C38.3933 8.72856 38.3246 8.65999 38.05 8.59142C37.9127 8.52285 37.7754 8.3857 37.7067 8.24856C37.6381 8.11142 37.5694 7.9057 37.5694 7.69999C37.5694 7.49427 37.6381 7.35713 37.7067 7.15142C37.7754 7.01427 37.9127 6.87713 38.05 6.80856C38.2559 6.73999 38.4619 6.67142 38.6679 6.67142C38.8738 6.67142 39.0111 6.73999 39.2858 6.80856C39.4231 6.87713 39.5604 7.01427 39.629 7.15142C39.6977 7.28856 39.7663 7.49427 39.7663 7.69999C39.7663 7.97427 39.6977 8.11142 39.629 8.24856ZM39.629 9.75713V16.4771H37.7754V9.75713H39.629Z" fill="white"/>
<path d="M46.9064 14.9686C46.6318 15.5171 46.2199 15.9286 45.7393 16.2029C45.1901 16.4771 44.6408 16.6143 43.9543 16.6143C43.2677 16.6143 42.7185 16.4771 42.1693 16.2029C41.62 15.9286 41.2768 15.4486 41.0021 14.9686C40.7275 14.42 40.5902 13.8029 40.5902 13.1171C40.5902 12.3629 40.7275 11.8143 41.0021 11.2657C41.2768 10.7171 41.6887 10.3057 42.1693 10.0314C42.7185 9.75714 43.2677 9.62 43.9543 9.62C44.6408 9.62 45.1901 9.75714 45.7393 10.0314C46.2885 10.3057 46.6318 10.7857 46.9064 11.2657C47.181 11.8143 47.3184 12.4314 47.3184 13.1171C47.3184 13.8029 47.181 14.4886 46.9064 14.9686ZM45.1214 14.6943C45.396 14.3514 45.4647 13.8029 45.4647 13.1171C45.4647 12.5 45.3274 12.02 45.1214 11.54C44.9154 11.1971 44.4349 10.9229 43.9543 10.9229C43.405 10.9229 43.0618 11.1286 42.8558 11.54C42.5812 11.8829 42.5125 12.4314 42.5125 13.1857C42.5125 13.8714 42.6498 14.3514 42.8558 14.7629C43.1304 15.1057 43.5424 15.38 44.0229 15.38C44.5035 15.38 44.8468 15.0371 45.1214 14.6943Z" fill="white"/>
<path d="M56.8613 7.76855C57.2733 7.97426 57.6852 8.38569 57.8912 8.79712C58.0971 9.20855 58.2344 9.75712 58.2344 10.3057C58.2344 10.9228 58.0971 11.3343 57.8912 11.8143C57.6852 12.2257 57.2733 12.6371 56.8613 12.8428C56.4494 13.0485 55.8315 13.1857 55.145 13.1857H53.0853V16.34H51.0257V7.42569H55.2136C55.8315 7.42569 56.3808 7.56283 56.8613 7.76855ZM55.9002 11.3343C56.1748 11.1285 56.3121 10.7857 56.3121 10.3057C56.3121 9.89426 56.1748 9.5514 55.9688 9.34569C55.6942 9.13997 55.2823 9.0714 54.733 9.0714H53.154V11.6771H54.733C55.145 11.6771 55.5569 11.6085 55.9002 11.3343Z" fill="white"/>
<path d="M62.6969 12.02C62.6969 11.6086 62.6283 11.2657 62.491 11.06C62.3537 10.8543 62.0791 10.7857 61.5985 10.7857C61.2552 10.7857 60.9119 10.8543 60.7746 10.9914C60.5686 11.1286 60.5 11.3343 60.4313 11.6086H58.5777C58.5777 10.9228 58.8523 10.4428 59.4702 10.0314C60.0194 9.68856 60.7746 9.48285 61.6671 9.48285C62.6969 9.48285 63.3835 9.68856 63.8641 10.1686C64.276 10.58 64.5506 11.2657 64.5506 12.1571V16.4771H62.8342L62.7656 15.5857C62.6283 15.86 62.4223 16.2028 62.0104 16.34C61.6671 16.5457 61.1865 16.6143 60.706 16.6143C60.294 16.6143 59.8134 16.5457 59.4702 16.4086C59.1269 16.2714 58.8523 15.9971 58.6463 15.6543C58.4404 15.38 58.3717 14.9 58.3717 14.4886C58.3717 13.7343 58.6463 13.1857 59.2642 12.7743C59.8821 12.4314 60.706 12.2257 61.8044 12.2257H62.7656V12.02H62.6969ZM61.9417 13.46C61.3239 13.46 60.9119 13.5286 60.6373 13.6657C60.3627 13.8028 60.2254 14.0086 60.2254 14.42C60.2254 14.6943 60.294 14.9686 60.5 15.1057C60.706 15.2428 60.9119 15.3114 61.2552 15.3114C61.5985 15.3114 61.8044 15.2428 62.0104 15.1743C62.2164 15.0371 62.3537 14.9 62.5596 14.6257C62.6969 14.42 62.6969 14.2143 62.6969 13.8028V13.3914H62.0104V13.46H61.9417Z" fill="white"/>
<path d="M68.3266 14.3514L69.7683 9.75714H71.6907L69.4251 16.2714C69.1505 17.0257 68.8072 17.5743 68.4639 18.0543C68.1206 18.3971 67.6401 18.74 67.2281 18.8771C66.8162 19.0143 66.267 19.0829 65.7177 19.0829V17.5057C66.1297 17.5057 66.5416 17.4371 66.8162 17.3C67.0908 17.1629 67.3654 16.9571 67.4341 16.5457L64.9625 9.82571H66.8849L68.3266 14.3514Z" fill="white"/>
<path d="M78.6248 9.82571C78.9681 9.61999 79.38 9.55142 79.7919 9.55142C80.5471 9.55142 81.0963 9.75714 81.5083 10.2371C81.8515 10.6486 82.1262 11.2657 82.1262 12.02V16.5457H80.2725V12.8429C80.2725 12.2257 80.2038 11.7457 79.9979 11.54C79.8606 11.2657 79.5859 11.1971 79.174 11.1971C78.7621 11.1971 78.4875 11.3343 78.2815 11.6086C78.0755 11.8829 78.0069 12.3629 78.0069 12.9114V16.6143H76.1532V12.8429C76.1532 12.2257 76.0846 11.7457 75.8786 11.54C75.7413 11.2657 75.4667 11.1971 75.0547 11.1971C74.6428 11.1971 74.3682 11.3343 74.1622 11.6086C73.9563 11.8829 73.8876 12.3629 73.8876 12.9114V16.6143H72.1026V9.89428H73.8876V10.6486C74.4369 9.89428 75.0547 9.55142 75.8786 9.55142C76.2905 9.55142 76.7711 9.61999 77.0457 9.82571C77.3203 10.0314 77.6636 10.2371 77.8009 10.6486C78.0069 10.3057 78.2815 10.0314 78.6248 9.82571Z" fill="white"/>
<path d="M89.5409 13.5971H84.8037C84.8037 14.2143 84.941 14.6257 85.2157 14.8314C85.4903 15.1057 85.9022 15.2429 86.3828 15.2429C86.7261 15.2429 87.0693 15.1743 87.2753 15.0371C87.4813 14.9 87.6186 14.7629 87.6872 14.4886H89.3349C89.1976 15.1743 88.7857 15.7229 88.3051 16.1343C87.7559 16.4771 87.138 16.6829 86.3141 16.6829C85.6276 16.6829 85.0097 16.5457 84.4605 16.2714C83.9112 15.9971 83.568 15.5171 83.2933 15.0371C83.0187 14.5571 82.8814 13.8714 82.8814 13.1857C82.8814 12.5 83.0187 11.9514 83.2933 11.3343C83.568 10.7857 83.9799 10.3743 84.4605 10.1C85.0097 9.82571 85.5589 9.68857 86.2455 9.68857C86.932 9.68857 87.4813 9.82571 88.0305 10.1C88.5797 10.3743 88.8543 10.8543 89.129 11.4029C89.3349 12.02 89.4722 12.5686 89.4722 13.3229L89.5409 13.5971ZM87.6872 12.3629C87.6186 11.4029 87.0693 10.9229 86.2455 10.9229C85.8335 10.9229 85.4903 11.06 85.2157 11.2657C85.0097 11.4714 84.8037 11.8829 84.8037 12.2943H87.6872V12.3629Z" fill="white"/>
<path d="M96.5437 16.4771H94.69V12.7743C94.69 12.1571 94.6213 11.6771 94.4154 11.4714C94.2094 11.1971 93.8661 11.1286 93.5229 11.1286C93.1109 11.1286 92.7677 11.2657 92.5617 11.54C92.3557 11.8143 92.2871 12.2943 92.2871 12.8429V16.5457H90.4334V9.82571H92.2184V10.7857C92.4244 10.4429 92.7677 10.1686 93.1109 9.96285C93.4542 9.75714 93.8661 9.68857 94.2094 9.68857C95.0333 9.68857 95.6512 9.89428 96.0631 10.3743C96.4064 10.7857 96.681 11.4714 96.681 12.4314V16.4771H96.5437Z" fill="white"/>
<path d="M99.9764 9.75712H101.281V10.9914H99.9764V13.94C99.9764 14.2143 99.9764 14.5571 100.045 14.6943C100.114 14.8314 100.182 14.9686 100.32 15.0371C100.457 15.1057 100.594 15.1057 100.869 15.1057C101.006 15.1057 101.212 15.1057 101.418 15.0371V16.4771C101.212 16.5457 100.869 16.6143 100.526 16.6143C99.7704 16.6143 99.2212 16.4086 98.8093 15.9971C98.466 15.6543 98.1914 15.0371 98.1914 14.1457V10.8543H97.0929V9.61998H98.1914V7.63141H100.045V9.68855H99.9764V9.75712Z" fill="white"/>
<path d="M105.743 11.54C105.743 11.2657 105.606 11.1286 105.469 10.9228C105.263 10.7857 105.057 10.7857 104.645 10.7857C104.302 10.7857 104.027 10.8543 103.89 10.9228C103.752 10.9914 103.684 11.1971 103.684 11.3343C103.684 11.4714 103.752 11.6086 103.821 11.6771C103.89 11.7457 104.027 11.8828 104.233 11.8828C104.439 11.9514 104.645 12.02 104.988 12.0886L105.743 12.2257C106.43 12.3628 106.91 12.5686 107.322 12.98C107.597 13.2543 107.872 13.7343 107.872 14.2143C107.872 14.7628 107.734 15.1743 107.46 15.4486C107.185 15.7914 106.773 16.0657 106.361 16.2028C105.949 16.34 105.4 16.4086 104.782 16.4086C104.164 16.4086 103.684 16.34 103.134 16.2028C102.723 16.0657 102.311 15.7914 102.036 15.4486C101.761 15.1743 101.693 14.6943 101.693 14.2828H103.478C103.478 14.5571 103.615 14.8314 103.821 15.0371C104.027 15.1743 104.439 15.2428 104.782 15.2428C105.057 15.2428 105.4 15.1743 105.606 15.0371C105.812 14.9 105.881 14.7628 105.881 14.42C105.881 14.2143 105.812 14.0086 105.606 13.8028C105.4 13.6657 105.057 13.5286 104.645 13.46L103.89 13.3228C103.34 13.1857 102.997 13.1171 102.723 12.9114C102.448 12.7743 102.173 12.5686 102.036 12.2943C101.899 12.02 101.83 11.7457 101.83 11.4028C101.83 10.9914 101.967 10.58 102.173 10.3057C102.379 10.0314 102.791 9.75713 103.203 9.61999C103.615 9.48285 104.164 9.41428 104.782 9.41428C105.675 9.41428 106.361 9.55142 106.842 9.96285C107.391 10.3057 107.597 10.7857 107.666 11.4714H105.743V11.54Z" fill="white"/>
<path d="M23.9758 12.5C23.9758 18.9457 18.758 24.1572 12.3045 24.1572C5.85099 24.1572 0.63324 18.9457 0.63324 12.5C0.63324 6.05429 5.85099 0.842865 12.3045 0.842865C18.758 0.842865 23.9758 6.05429 23.9758 12.5Z" fill="white"/>
<path d="M19.8565 12.0886V7.42572C19.8565 6.53429 19.2386 5.78001 18.4148 5.64287L16.7671 5.36858C14.3642 5.16287 10.3822 5.16287 7.9793 5.36858L6.19429 5.57429C5.30178 5.78001 4.75254 6.53429 4.75254 7.42572V12.0886C4.75254 12.0886 4.47792 17.0943 11.2061 20.7972C11.8926 21.2086 12.7165 21.2086 13.403 20.7972C13.8836 20.5229 14.3642 20.2486 14.7074 19.9057L9.42105 14.9C9.14643 14.6943 9.07778 14.2829 9.21509 14.0086C9.35239 13.6657 9.62701 13.46 9.97029 13.46H11.0688C11.8926 13.46 12.5105 12.98 12.8538 12.2943H9.00912C8.52854 12.2943 8.18527 11.9514 8.18527 11.4714C8.18527 10.9914 8.52854 10.6486 9.00912 10.6486H12.8538C12.5105 9.96287 11.824 9.48287 11.0688 9.48287H9.00912C8.52854 9.48287 8.18527 9.14001 8.18527 8.66001C8.18527 8.18001 8.52854 7.83715 9.00912 7.83715H11.0688H15.3253C15.8059 7.83715 16.1492 8.18001 16.1492 8.66001C16.1492 9.14001 15.8059 9.48287 15.3253 9.48287H14.0209C14.2955 9.82572 14.4328 10.2372 14.5701 10.6486H15.3253C15.8059 10.6486 16.1492 10.9914 16.1492 11.4714C16.1492 11.9514 15.8059 12.2943 15.3253 12.2943H14.5015C14.1582 13.5972 13.197 14.6257 11.824 14.9686L15.9432 18.8772C20.0625 15.6543 19.8565 12.0886 19.8565 12.0886Z" fill="#23282D"/>
</g>
<defs>
<clipPath id="clip0_9_145">
<rect width="113.28" height="24" fill="white" transform="translate(0.289978 0.5)"/>
</clipPath>
</defs>
</svg>
